<svg id="svg" version="1.1" xmlns="http://www.w3.org/2000/svg" xmlns:xlink="http://www.w3.org/1999/xlink" width="400" height="400" viewBox="0, 0, 400,400">
  <g id="svgg">
    <path id="path0" d="M201.800 94.170 C 199.820 94.431,197.930 94.742,197.600 94.862 C 197.270 94.981,196.370 95.307,195.600 95.585 C 194.830 95.864,193.705 96.181,193.100 96.291 C 192.495 96.401,192.000 96.650,192.000 96.845 C 192.000 97.040,191.708 97.200,191.350 97.200 C 190.993 97.200,189.623 97.920,188.305 98.800 C 186.987 99.680,185.794 100.400,185.654 100.400 C 185.068 100.400,178.097 107.906,177.574 109.100 C 177.261 109.815,176.869 110.400,176.702 110.400 C 176.536 110.400,176.400 110.648,176.400 110.951 C 176.400 111.254,176.130 111.726,175.800 112.000 C 175.470 112.274,175.200 112.926,175.200 113.449 C 175.200 113.972,175.020 114.400,174.800 114.400 C 174.580 114.400,174.400 114.754,174.400 115.186 C 174.400 115.619,174.152 116.564,173.848 117.286 C 173.544 118.009,173.094 119.243,172.848 120.028 C 172.313 121.735,172.243 133.311,172.762 134.305 C 172.962 134.687,173.442 136.170,173.830 137.600 C 174.218 139.030,174.685 140.371,174.868 140.580 C 175.050 140.789,175.200 141.262,175.200 141.631 C 175.200 142.000,175.453 142.512,175.763 142.769 C 176.073 143.026,176.618 143.814,176.974 144.518 C 177.920 146.390,178.459 147.191,179.800 148.716 C 181.599 150.762,183.613 152.800,183.837 152.800 C 183.946 152.800,184.520 153.250,185.113 153.800 C 185.707 154.350,186.419 154.800,186.696 154.800 C 186.973 154.800,187.201 154.935,187.203 155.100 C 187.206 155.492,189.511 156.800,190.199 156.800 C 190.493 156.800,190.793 156.935,190.867 157.100 C 191.077 157.573,193.592 158.800,194.352 158.800 C 194.731 158.800,195.211 158.964,195.420 159.165 C 197.295 160.965,212.446 160.979,215.695 159.184 C 216.077 158.973,216.730 158.800,217.146 158.800 C 217.562 158.800,218.126 158.530,218.400 158.200 C 218.674 157.870,219.146 157.600,219.449 157.600 C 219.752 157.600,220.000 157.420,220.000 157.200 C 220.000 156.980,220.274 156.800,220.608 156.800 C 221.335 156.800,224.136 155.077,225.568 153.750 C 226.131 153.227,226.713 152.800,226.861 152.800 C 227.010 152.800,227.912 152.062,228.866 151.159 L 230.600 149.519 225.444 144.359 C 220.755 139.667,219.200 138.481,219.200 139.597 C 219.200 140.203,213.346 144.400,212.501 144.400 C 212.094 144.400,211.589 144.550,211.380 144.733 C 209.227 146.617,202.331 146.209,198.400 143.965 C 198.070 143.776,197.247 143.342,196.570 142.999 C 194.788 142.096,190.800 138.119,190.800 137.246 C 190.800 137.055,190.530 136.674,190.200 136.400 C 189.870 136.126,189.600 135.564,189.600 135.151 C 189.600 134.738,189.420 134.400,189.200 134.400 C 188.980 134.400,188.800 133.961,188.800 133.424 C 188.800 132.887,188.638 132.347,188.441 132.225 C 187.835 131.851,187.552 126.729,188.009 124.400 C 188.820 120.261,188.891 120.000,189.202 120.000 C 189.373 120.000,189.626 119.550,189.764 119.000 C 189.902 118.450,190.192 118.000,190.408 118.000 C 190.623 118.000,190.800 117.772,190.800 117.493 C 190.800 116.871,194.312 112.800,194.848 112.800 C 195.061 112.800,195.720 112.350,196.313 111.800 C 196.907 111.250,197.709 110.800,198.096 110.800 C 198.483 110.800,198.800 110.622,198.800 110.405 C 198.800 110.187,199.524 109.894,200.409 109.752 C 201.294 109.611,202.114 109.339,202.232 109.147 C 202.519 108.683,209.491 108.700,209.778 109.165 C 209.903 109.366,210.723 109.652,211.602 109.800 C 212.481 109.949,213.200 110.234,213.200 110.435 C 213.200 110.636,213.469 110.800,213.797 110.800 C 214.371 110.800,214.832 111.134,217.972 113.824 C 219.592 115.212,220.450 115.201,221.210 113.782 C 221.499 113.242,221.975 112.800,222.268 112.800 C 222.560 112.800,222.800 112.621,222.800 112.402 C 222.800 112.183,224.420 110.353,226.400 108.335 C 230.804 103.846,230.793 104.115,226.700 101.212 C 225.655 100.471,224.800 99.715,224.800 99.532 C 224.800 99.349,224.502 99.200,224.138 99.200 C 223.774 99.200,222.886 98.750,222.164 98.200 C 221.443 97.650,220.571 97.200,220.227 97.200 C 219.882 97.200,219.600 97.020,219.600 96.800 C 219.600 96.580,219.184 96.400,218.676 96.400 C 218.169 96.400,217.404 96.136,216.976 95.813 C 216.549 95.490,215.705 95.220,215.100 95.213 C 214.495 95.206,214.000 95.046,214.000 94.858 C 214.000 94.669,212.562 94.395,210.805 94.249 C 209.049 94.102,207.114 93.918,206.505 93.839 C 205.897 93.761,203.780 93.910,201.800 94.170 M110.400 127.336 L 110.400 159.271 131.700 159.122 C 154.040 158.965,155.146 158.873,155.933 157.100 C 156.007 156.935,156.348 156.800,156.692 156.800 C 157.835 156.800,162.800 152.332,162.800 151.304 C 162.800 151.027,162.939 150.800,163.109 150.800 C 163.279 150.800,163.749 150.125,164.153 149.300 C 164.558 148.475,165.032 147.514,165.207 147.165 C 166.456 144.675,166.403 133.200,165.143 133.200 C 164.954 133.200,164.800 132.902,164.800 132.538 C 164.800 132.174,164.350 131.286,163.800 130.564 C 163.250 129.843,162.800 129.100,162.800 128.913 C 162.800 128.726,162.215 128.232,161.500 127.816 C 160.785 127.401,160.110 126.957,160.000 126.830 C 159.890 126.704,159.125 126.257,158.300 125.837 C 156.360 124.850,156.403 124.543,158.800 122.316 C 159.900 121.293,160.800 120.260,160.800 120.020 C 160.800 119.780,161.250 118.871,161.800 118.000 C 163.301 115.622,163.305 107.468,161.805 104.648 C 160.036 101.320,155.919 97.242,154.300 97.213 C 153.915 97.206,153.600 97.049,153.600 96.864 C 153.600 95.926,147.385 95.574,129.300 95.489 L 110.400 95.400 110.400 127.336 M145.290 110.500 C 148.748 112.467,148.889 116.899,145.545 118.567 C 143.651 119.512,125.805 119.512,125.443 118.567 C 125.056 117.560,125.162 112.153,125.590 111.026 L 125.980 110.000 135.196 110.000 C 141.832 110.000,144.657 110.140,145.290 110.500 M146.839 134.303 C 150.521 136.773,150.947 140.972,147.762 143.402 L 146.453 144.400 136.069 144.400 C 126.970 144.400,125.656 144.322,125.443 143.767 C 124.981 142.563,125.176 134.584,125.680 134.080 C 126.536 133.224,145.530 133.424,146.839 134.303 M134.600 239.828 C 133.500 240.134,132.105 240.388,131.500 240.392 C 130.895 240.397,130.400 240.580,130.400 240.800 C 130.400 241.020,130.023 241.200,129.562 241.200 C 129.101 241.200,128.156 241.496,127.462 241.857 C 126.768 242.219,125.840 242.700,125.400 242.928 C 122.913 244.215,122.148 244.686,121.227 245.500 C 120.667 245.995,120.018 246.400,119.786 246.400 C 119.187 246.400,113.519 252.441,112.808 253.838 C 112.483 254.477,111.808 255.557,111.308 256.238 C 110.809 256.919,110.400 257.751,110.400 258.089 C 110.400 258.426,110.130 258.926,109.800 259.200 C 109.470 259.474,109.200 260.038,109.200 260.454 C 109.200 260.870,109.035 261.523,108.833 261.905 C 105.315 268.559,107.662 285.426,113.000 291.847 C 113.220 292.112,114.030 293.100,114.800 294.042 C 117.501 297.348,124.426 302.800,125.924 302.800 C 126.136 302.800,126.824 303.069,127.454 303.398 C 128.084 303.726,128.904 303.996,129.276 303.998 C 129.648 303.999,130.064 304.180,130.200 304.400 C 130.336 304.620,130.962 304.800,131.590 304.800 C 132.219 304.800,132.793 304.959,132.867 305.154 C 133.296 306.292,147.509 306.244,148.637 305.100 C 148.800 304.935,149.266 304.800,149.672 304.800 C 150.414 304.800,150.673 304.700,153.132 303.468 C 153.865 303.100,154.642 302.800,154.859 302.800 C 155.076 302.800,155.843 302.350,156.564 301.800 C 157.286 301.250,158.084 300.800,158.338 300.800 C 158.592 300.800,158.800 300.632,158.800 300.427 C 158.800 300.222,159.157 299.941,159.592 299.802 C 160.028 299.664,161.507 298.473,162.878 297.157 L 165.371 294.762 163.985 293.446 C 163.223 292.722,160.914 290.390,158.854 288.265 C 154.441 283.713,155.238 283.946,152.484 286.400 C 151.250 287.500,150.021 288.400,149.753 288.400 C 149.486 288.400,149.207 288.535,149.133 288.700 C 148.874 289.284,146.463 290.400,145.462 290.400 C 144.904 290.400,144.336 290.580,144.200 290.800 C 143.863 291.345,138.594 291.307,136.828 290.747 C 132.179 289.274,126.558 285.187,125.771 282.709 C 125.647 282.319,125.378 282.000,125.173 282.000 C 124.968 282.000,124.800 281.757,124.800 281.460 C 124.800 281.162,124.350 280.073,123.800 279.038 C 122.754 277.070,122.304 269.427,123.132 267.695 C 123.315 267.313,123.765 266.400,124.132 265.668 C 124.500 264.935,124.800 264.108,124.800 263.830 C 124.800 262.943,131.059 256.800,131.963 256.800 C 132.423 256.800,132.800 256.655,132.800 256.477 C 132.800 256.068,135.364 254.968,137.200 254.591 C 139.991 254.016,146.800 254.456,146.800 255.210 C 146.800 255.390,147.340 255.655,148.000 255.800 C 148.660 255.945,149.200 256.229,149.200 256.432 C 149.200 256.634,149.469 256.800,149.797 256.800 C 150.442 256.800,151.943 257.963,153.500 259.668 L 154.475 260.735 158.637 256.496 C 160.927 254.165,162.800 252.152,162.800 252.024 C 162.800 251.895,163.250 251.452,163.800 251.039 C 164.350 250.626,164.800 250.081,164.800 249.828 C 164.800 249.323,161.771 246.400,161.248 246.400 C 161.070 246.400,160.597 246.039,160.197 245.597 C 159.798 245.155,159.005 244.559,158.435 244.271 C 157.866 243.984,156.375 243.175,155.122 242.474 C 153.869 241.773,152.561 241.200,152.216 241.200 C 151.871 241.200,151.277 241.033,150.895 240.830 C 148.042 239.310,138.558 238.727,134.600 239.828 M237.200 272.700 L 237.200 304.800 245.000 304.800 L 252.800 304.800 252.800 294.280 C 252.800 286.631,252.931 283.629,253.280 283.280 C 254.484 282.076,262.400 282.930,262.400 284.264 C 262.400 284.559,262.537 284.800,262.705 284.800 C 263.011 284.800,263.131 284.997,264.576 287.861 C 265.003 288.708,266.218 290.809,267.276 292.532 C 268.334 294.254,269.200 295.919,269.200 296.232 C 269.200 296.544,269.377 296.800,269.592 296.800 C 269.808 296.800,270.098 297.250,270.236 297.800 C 270.374 298.350,270.647 298.800,270.843 298.800 C 271.040 298.800,271.200 299.048,271.200 299.351 C 271.200 299.654,271.470 300.126,271.800 300.400 C 272.130 300.674,272.400 301.174,272.400 301.511 C 272.400 301.849,272.859 302.726,273.420 303.462 L 274.441 304.800 284.015 304.800 L 293.590 304.800 292.295 302.690 C 291.583 301.530,290.774 300.225,290.497 299.790 C 290.221 299.356,289.871 298.730,289.719 298.400 C 289.567 298.070,288.398 296.140,287.121 294.111 C 285.844 292.083,284.800 290.319,284.800 290.192 C 284.800 290.065,284.200 289.024,283.467 287.878 C 280.047 282.532,279.383 280.800,280.751 280.800 C 281.164 280.800,281.726 280.530,282.000 280.200 C 282.274 279.870,282.746 279.600,283.049 279.600 C 283.352 279.600,283.600 279.420,283.600 279.200 C 283.600 278.980,283.796 278.800,284.035 278.800 C 284.740 278.800,288.597 274.635,289.339 273.073 C 289.714 272.282,290.197 271.526,290.411 271.393 C 290.625 271.261,290.800 270.749,290.800 270.256 C 290.800 269.763,290.970 269.189,291.177 268.980 C 292.921 267.222,292.907 256.477,291.158 254.620 C 290.961 254.411,290.800 253.895,290.800 253.474 C 290.800 252.314,287.403 247.448,285.702 246.170 C 284.876 245.550,284.110 244.921,284.000 244.772 C 283.890 244.624,282.810 244.010,281.600 243.408 C 280.390 242.807,278.860 242.030,278.200 241.683 C 277.183 241.148,274.737 241.032,262.200 240.922 C 254.060 240.851,245.105 240.750,242.300 240.697 L 237.200 240.600 237.200 272.700 M174.400 272.800 L 174.400 304.800 199.600 304.800 L 224.800 304.800 224.800 297.400 L 224.800 290.000 207.974 290.000 C 187.884 290.000,189.600 290.467,189.600 285.000 C 189.600 279.585,188.407 280.000,203.974 280.000 L 216.800 280.000 216.800 272.605 L 216.800 265.211 203.300 265.105 L 189.800 265.000 189.686 260.858 C 189.525 255.042,187.620 255.600,207.649 255.600 L 224.800 255.600 224.800 248.200 L 224.800 240.800 199.600 240.800 L 174.400 240.800 174.400 272.800 M273.301 256.305 C 275.218 257.347,276.400 258.485,276.400 259.289 C 276.400 259.680,276.580 260.000,276.800 260.000 C 277.020 260.000,277.200 260.900,277.200 262.000 C 277.200 263.100,277.020 264.000,276.800 264.000 C 276.580 264.000,276.400 264.242,276.400 264.539 C 276.400 267.531,273.249 268.400,262.401 268.400 L 252.800 268.400 252.800 262.000 L 252.800 255.600 262.401 255.600 C 270.817 255.600,272.163 255.687,273.301 256.305 " stroke="none" fill="#0bbcd4" fill-rule="evenodd"></path>
    <path id="path1" d="M134.000 166.638 C 132.790 166.948,131.080 167.412,130.200 167.668 C 128.197 168.250,122.246 171.156,122.067 171.640 C 121.993 171.838,121.742 172.000,121.508 172.000 C 121.061 172.000,118.109 174.313,116.652 175.804 C 112.422 180.135,109.653 184.877,107.657 191.211 C 106.358 195.334,106.364 204.674,107.669 208.800 C 109.111 213.360,110.067 215.502,111.941 218.366 C 116.104 224.731,122.966 230.124,129.381 232.073 C 137.332 234.488,148.340 234.593,150.659 232.275 C 150.810 232.124,151.216 232.000,151.561 232.000 C 152.172 232.000,156.400 230.042,156.800 229.574 C 156.910 229.445,157.611 228.993,158.358 228.570 C 160.747 227.215,165.609 222.960,165.585 222.245 C 165.565 221.681,155.440 211.200,154.914 211.200 C 154.699 211.200,154.181 211.584,153.762 212.053 C 153.343 212.523,152.100 213.564,151.000 214.367 C 149.234 215.657,147.980 216.287,144.481 217.644 C 139.228 219.681,129.847 215.633,126.076 209.701 C 114.980 192.250,137.473 172.973,152.710 186.875 C 154.753 188.739,154.138 189.066,160.130 182.922 C 165.573 177.342,165.815 176.866,163.984 175.325 C 163.284 174.736,162.507 174.056,162.256 173.813 C 156.145 167.891,142.557 164.440,134.000 166.638 M236.498 199.700 L 236.600 232.200 244.600 232.200 L 252.600 232.200 252.701 217.800 C 252.756 209.880,252.890 203.164,252.998 202.875 C 253.262 202.168,253.874 202.618,258.617 207.005 C 260.715 208.946,262.830 210.875,263.316 211.293 C 265.776 213.407,268.709 216.007,269.600 216.864 C 270.150 217.392,272.035 219.079,273.789 220.612 C 275.544 222.146,277.360 223.760,277.825 224.200 C 278.291 224.640,280.083 226.260,281.808 227.800 C 283.533 229.340,285.492 231.095,286.161 231.700 C 288.526 233.838,288.400 235.581,288.400 200.833 C 288.400 183.251,288.291 168.581,288.157 168.233 C 287.791 167.279,272.609 167.279,272.243 168.233 C 272.109 168.581,272.000 175.331,272.000 183.233 C 272.000 191.135,271.865 197.596,271.700 197.591 C 271.406 197.582,270.018 196.395,266.397 193.061 C 265.405 192.147,263.155 190.142,261.397 188.604 C 259.639 187.065,258.110 185.714,258.000 185.600 C 257.890 185.486,256.362 184.135,254.604 182.596 C 252.846 181.058,250.938 179.350,250.364 178.800 C 249.790 178.250,248.086 176.720,246.577 175.400 C 245.067 174.080,242.390 171.695,240.627 170.100 C 238.865 168.505,237.191 167.200,236.909 167.200 C 236.494 167.200,236.415 173.459,236.498 199.700 M189.846 167.926 C 189.649 168.244,188.979 170.055,186.933 175.800 C 186.385 177.340,185.784 178.960,185.599 179.400 C 185.414 179.840,184.959 181.100,184.589 182.200 C 184.218 183.300,183.773 184.560,183.600 185.000 C 183.427 185.440,182.982 186.700,182.611 187.800 C 182.241 188.900,181.786 190.160,181.600 190.600 C 181.414 191.040,180.959 192.300,180.589 193.400 C 180.218 194.500,179.776 195.760,179.606 196.200 C 178.008 200.324,178.170 199.882,174.971 208.900 C 174.406 210.495,173.505 212.880,172.970 214.200 C 172.435 215.520,171.998 216.776,171.999 216.992 C 172.000 217.381,170.262 222.271,169.579 223.800 C 168.491 226.234,166.814 231.460,166.981 231.894 C 167.128 232.279,169.137 232.400,175.378 232.400 C 184.979 232.400,183.953 232.959,186.032 226.600 C 186.751 224.400,187.510 222.375,187.719 222.100 C 188.770 220.714,210.000 221.572,210.000 223.001 C 210.000 223.315,210.295 224.254,210.655 225.086 C 211.016 225.919,211.447 226.960,211.614 227.400 C 211.781 227.840,212.265 229.100,212.689 230.200 L 213.459 232.200 222.130 232.308 C 232.243 232.434,231.557 232.868,229.344 227.740 C 229.045 227.046,228.800 226.202,228.800 225.863 C 228.800 225.524,228.620 225.136,228.400 225.000 C 228.180 224.864,228.000 224.418,228.000 224.009 C 228.000 223.600,227.747 222.755,227.437 222.132 C 226.689 220.628,226.269 219.573,224.993 216.000 C 224.404 214.350,223.697 212.460,223.421 211.800 C 223.146 211.140,222.692 209.970,222.413 209.200 C 222.134 208.430,221.657 207.233,221.353 206.540 C 221.049 205.846,220.800 205.079,220.800 204.834 C 220.800 204.589,220.638 204.077,220.441 203.695 C 220.244 203.313,219.772 202.190,219.393 201.200 C 219.014 200.210,218.560 199.040,218.384 198.600 C 218.208 198.160,217.582 196.450,216.993 194.800 C 216.404 193.150,215.694 191.260,215.414 190.600 C 215.134 189.940,214.410 188.050,213.805 186.400 C 213.200 184.750,212.564 183.040,212.392 182.600 C 211.131 179.385,209.822 175.964,208.374 172.100 L 206.689 167.600 198.368 167.600 C 193.792 167.600,189.956 167.747,189.846 167.926 M201.129 194.624 C 205.173 196.642,205.417 203.051,201.538 205.366 C 199.455 206.610,195.571 206.102,193.906 204.369 C 189.203 199.473,195.046 191.590,201.129 194.624 " stroke="none" fill="#945ca4" fill-rule="evenodd"></path>
    <path id="path2" d="M0.000 200.000 L 0.000 400.000 200.000 400.000 L 400.000 400.000 400.000 200.000 L 400.000 0.000 200.000 0.000 L 0.000 0.000 0.000 200.000 M212.851 93.450 C 214.473 93.808,215.971 94.258,216.180 94.450 C 216.389 94.643,216.852 94.800,217.210 94.800 C 218.526 94.800,225.519 98.757,227.434 100.586 C 227.673 100.813,228.618 101.608,229.534 102.352 C 230.450 103.096,231.200 103.965,231.200 104.284 C 231.200 104.828,220.120 116.416,219.627 116.387 C 219.502 116.379,218.500 115.546,217.400 114.535 C 208.794 106.627,195.414 109.516,190.333 120.380 C 187.943 125.490,188.791 133.310,192.200 137.594 C 199.070 146.229,210.136 147.168,217.540 139.744 C 219.961 137.316,220.052 137.356,225.940 143.398 C 232.073 149.692,232.040 149.576,228.553 152.659 C 218.202 161.811,205.997 164.281,193.800 159.693 C 181.637 155.118,173.326 144.991,171.565 132.598 C 170.027 121.781,173.669 110.444,181.057 103.056 C 182.709 101.404,188.972 96.800,189.568 96.800 C 189.765 96.800,190.798 96.370,191.863 95.844 C 192.928 95.318,194.790 94.616,196.000 94.285 C 197.210 93.953,198.830 93.502,199.600 93.282 C 201.888 92.628,209.565 92.726,212.851 93.450 M154.051 95.885 C 161.744 99.613,166.603 109.689,163.771 116.038 C 162.117 119.746,160.969 121.663,159.607 122.993 L 158.041 124.523 159.520 125.301 C 170.946 131.308,169.523 151.319,157.211 157.756 C 152.362 160.292,153.359 160.200,130.600 160.200 L 109.800 160.200 109.698 127.625 C 109.617 101.836,109.700 94.981,110.098 94.716 C 110.374 94.533,119.780 94.431,131.000 94.491 L 151.400 94.600 154.051 95.885 M126.400 114.620 L 126.400 118.040 135.929 117.920 C 146.890 117.782,146.800 117.810,146.800 114.515 C 146.800 111.339,146.323 111.200,135.438 111.200 L 126.400 111.200 126.400 114.620 M126.400 139.180 L 126.400 143.600 135.920 143.600 C 146.232 143.600,147.003 143.467,148.139 141.487 C 149.146 139.733,148.976 137.980,147.644 136.385 L 146.489 135.000 136.444 134.880 L 126.400 134.761 126.400 139.180 M148.274 166.401 C 149.003 166.620,150.275 167.001,151.100 167.246 C 152.839 167.763,155.136 168.700,156.000 169.245 C 156.330 169.453,156.915 169.729,157.300 169.858 C 157.685 169.988,158.000 170.252,158.000 170.447 C 158.000 170.641,158.192 170.800,158.427 170.800 C 159.316 170.800,166.007 176.242,165.987 176.949 C 165.973 177.449,155.076 188.800,154.610 188.800 C 154.449 188.800,153.446 188.017,152.381 187.059 C 140.214 176.120,121.365 186.480,123.880 202.724 C 126.031 216.624,142.337 222.259,152.534 212.627 C 155.089 210.213,154.688 210.038,160.717 216.191 C 166.833 222.431,166.699 222.037,163.644 224.839 C 154.874 232.885,142.544 236.342,132.800 233.488 C 131.590 233.133,129.918 232.643,129.085 232.399 C 120.650 229.923,111.941 221.432,108.367 212.200 C 106.892 208.390,105.763 201.460,106.144 198.554 C 107.193 190.557,107.329 190.024,109.556 185.207 C 111.972 179.980,120.297 170.800,122.621 170.800 C 122.762 170.800,123.387 170.437,124.011 169.993 C 128.854 166.544,142.190 164.569,148.274 166.401 M239.000 168.210 C 239.660 168.790,241.352 170.285,242.761 171.532 C 244.169 172.780,245.699 174.129,246.161 174.531 C 246.622 174.933,247.810 176.014,248.800 176.932 C 249.790 177.850,251.320 179.210,252.200 179.953 C 253.080 180.697,254.613 182.047,255.606 182.953 C 256.599 183.859,258.228 185.320,259.225 186.200 C 261.325 188.052,266.895 193.045,269.559 195.464 C 270.567 196.380,271.529 197.044,271.696 196.941 C 271.863 196.837,272.000 190.103,272.000 181.976 L 272.000 167.200 279.920 167.200 C 285.547 167.200,287.979 167.339,288.320 167.680 C 288.865 168.225,289.043 233.602,288.500 233.597 C 288.020 233.593,286.284 232.328,284.387 230.600 C 280.644 227.191,278.532 225.286,276.815 223.773 C 275.834 222.908,274.124 221.376,273.015 220.368 C 271.907 219.360,268.390 216.219,265.200 213.388 C 262.010 210.556,258.860 207.743,258.200 207.135 C 255.375 204.535,253.780 203.201,253.500 203.200 C 253.335 203.200,253.200 209.575,253.200 217.367 C 253.200 225.159,253.091 231.819,252.957 232.167 C 252.591 233.122,236.609 233.122,236.243 232.167 C 235.919 231.324,235.929 167.005,236.253 166.681 C 236.571 166.363,237.463 166.860,239.000 168.210 M207.527 168.900 C 207.938 169.835,208.500 171.230,208.777 172.000 C 209.054 172.770,209.421 173.760,209.592 174.200 C 209.764 174.640,210.176 175.720,210.508 176.600 C 210.840 177.480,211.562 179.370,212.112 180.800 C 212.662 182.230,213.339 184.030,213.616 184.800 C 213.893 185.570,214.345 186.740,214.620 187.400 C 214.895 188.060,216.052 191.120,217.190 194.200 C 218.328 197.280,219.678 200.880,220.191 202.200 C 220.703 203.520,222.232 207.570,223.588 211.200 C 224.943 214.830,226.332 218.520,226.674 219.400 C 227.016 220.280,227.433 221.360,227.600 221.800 C 227.767 222.240,228.182 223.320,228.522 224.200 C 230.232 228.625,231.200 231.485,231.200 232.108 C 231.200 233.178,213.293 233.170,212.951 232.100 C 212.718 231.370,212.426 230.605,211.620 228.617 C 211.357 227.966,210.768 226.346,210.311 225.017 C 209.214 221.820,209.967 222.013,198.549 222.006 C 187.192 221.999,188.091 221.724,186.805 225.600 C 185.860 228.448,185.626 229.071,184.662 231.300 L 184.013 232.800 175.206 232.800 C 165.324 232.800,165.839 232.989,167.036 229.800 C 167.366 228.920,167.973 227.210,168.384 226.000 C 168.795 224.790,169.704 222.270,170.403 220.400 C 171.102 218.530,171.769 216.592,171.885 216.094 C 172.001 215.596,172.254 215.090,172.448 214.970 C 172.641 214.851,172.800 214.410,172.800 213.990 C 172.800 213.301,173.520 211.343,174.449 209.505 C 174.642 209.123,174.800 208.459,174.800 208.029 C 174.800 207.599,174.966 207.145,175.169 207.019 C 175.372 206.894,175.665 206.214,175.820 205.509 C 175.975 204.803,176.248 203.950,176.426 203.613 C 176.604 203.276,177.225 201.650,177.805 200.000 C 178.760 197.284,179.518 195.249,180.414 193.000 C 180.590 192.560,180.826 191.840,180.940 191.400 C 181.053 190.960,181.707 189.070,182.392 187.200 C 183.077 185.330,183.970 182.810,184.376 181.600 C 184.782 180.390,185.336 178.860,185.607 178.200 C 186.534 175.943,186.733 175.399,186.929 174.600 C 187.366 172.809,189.075 168.432,189.569 167.837 C 190.022 167.292,191.298 167.200,198.439 167.200 L 206.780 167.200 207.527 168.900 M195.537 195.010 C 191.570 197.164,191.755 203.019,195.863 205.300 C 200.627 207.945,206.148 201.960,203.336 197.199 C 201.919 194.801,197.965 193.691,195.537 195.010 M145.554 238.425 C 148.904 238.963,152.304 239.978,154.800 241.183 C 156.623 242.064,160.257 244.200,160.720 244.663 C 161.015 244.958,161.379 245.201,161.529 245.203 C 162.024 245.209,166.000 249.133,166.000 249.616 C 166.000 250.243,155.232 261.603,154.650 261.589 C 154.403 261.583,153.302 260.779,152.203 259.802 C 141.897 250.635,126.234 256.318,124.027 270.025 C 123.617 272.568,124.010 277.250,124.755 278.704 C 124.951 279.087,125.446 280.101,125.856 280.957 C 130.697 291.086,144.324 292.970,152.933 284.700 C 153.791 283.875,154.672 283.200,154.888 283.200 C 155.329 283.200,166.400 294.351,166.400 294.795 C 166.400 295.331,162.499 299.058,160.200 300.717 C 156.378 303.478,152.235 305.317,146.554 306.777 C 140.207 308.408,129.813 306.371,122.631 302.089 C 119.799 300.401,112.800 294.200,112.800 293.379 C 112.800 293.205,112.548 292.779,112.240 292.431 C 111.729 291.856,109.961 288.818,109.136 287.100 C 108.951 286.715,108.649 286.085,108.464 285.700 C 105.731 279.997,105.332 269.715,107.561 262.400 C 108.356 259.793,111.048 254.314,112.078 253.209 C 112.475 252.782,112.800 252.328,112.800 252.199 C 112.800 252.071,113.416 251.298,114.170 250.483 C 114.923 249.667,115.958 248.534,116.470 247.964 C 116.981 247.394,118.120 246.405,119.000 245.766 C 119.880 245.127,120.690 244.491,120.800 244.353 C 123.747 240.644,138.048 237.219,145.554 238.425 M225.920 240.080 C 226.484 240.644,226.602 255.062,226.050 255.934 C 225.776 256.365,222.642 256.462,209.756 256.441 C 200.980 256.426,193.170 256.553,192.400 256.724 L 191.000 257.033 191.000 260.616 L 191.000 264.200 204.200 264.302 C 214.673 264.383,217.483 264.515,217.800 264.940 C 218.051 265.277,218.126 268.365,218.000 273.238 L 217.800 281.000 204.400 281.200 L 191.000 281.400 191.000 285.000 L 191.000 288.600 208.379 288.704 C 221.672 288.784,225.832 288.925,226.073 289.304 C 226.663 290.233,226.465 304.648,225.855 305.154 C 225.460 305.482,218.247 305.578,199.555 305.503 L 173.800 305.400 173.698 272.825 C 173.617 247.030,173.700 240.184,174.098 239.931 C 174.969 239.378,225.363 239.523,225.920 240.080 M276.860 240.300 C 277.135 240.575,277.745 240.800,278.216 240.800 C 280.811 240.800,288.096 246.183,289.811 249.368 C 290.235 250.156,290.721 250.800,290.891 250.800 C 291.061 250.800,291.206 251.115,291.213 251.500 C 291.220 251.885,291.490 252.549,291.813 252.976 C 292.136 253.404,292.400 254.133,292.400 254.596 C 292.400 255.060,292.605 255.645,292.857 255.897 C 293.609 256.649,293.497 266.217,292.710 268.426 C 290.731 273.984,286.735 278.897,282.460 281.030 C 281.085 281.716,280.868 282.427,281.800 283.200 C 282.130 283.474,282.400 283.946,282.400 284.249 C 282.400 284.552,282.580 284.800,282.800 284.800 C 283.020 284.800,283.200 284.983,283.200 285.207 C 283.200 285.431,284.100 287.065,285.200 288.839 C 286.300 290.612,287.200 292.142,287.200 292.239 C 287.200 292.335,288.100 293.865,289.200 295.639 C 290.300 297.412,291.200 298.944,291.200 299.041 C 291.200 299.139,291.938 300.388,292.840 301.817 C 295.320 305.743,295.651 305.600,284.089 305.600 C 272.064 305.600,273.948 306.611,268.805 297.400 C 266.363 293.028,265.318 291.184,263.400 287.864 L 261.400 284.403 257.307 284.401 L 253.213 284.400 253.107 294.900 L 253.000 305.400 245.400 305.514 C 241.220 305.576,237.395 305.528,236.900 305.406 L 236.000 305.185 236.000 272.622 C 236.000 241.951,236.041 240.047,236.700 239.862 C 238.393 239.387,276.362 239.801,276.860 240.300 M253.467 256.667 C 253.320 256.813,253.200 259.333,253.200 262.267 L 253.200 267.600 262.376 267.600 C 268.063 267.600,271.647 267.448,271.800 267.200 C 271.936 266.980,272.395 266.800,272.821 266.800 C 273.271 266.800,274.114 266.087,274.834 265.100 C 277.129 261.951,275.905 258.259,272.129 256.945 C 270.516 256.383,253.997 256.137,253.467 256.667 " stroke="none" fill="#fbfbfb" fill-rule="evenodd"></path>
    <path id="path3" d="M201.000 93.701 C 195.505 94.581,189.594 96.975,186.000 99.776 C 185.010 100.547,183.570 101.666,182.800 102.261 C 178.766 105.380,174.873 111.822,172.639 119.075 C 171.917 121.420,171.722 132.603,172.367 134.640 C 172.570 135.278,173.051 136.880,173.437 138.200 C 174.178 140.733,175.200 142.686,175.200 141.569 C 175.200 141.234,175.050 140.789,174.868 140.580 C 174.685 140.371,174.218 139.030,173.830 137.600 C 173.442 136.170,172.962 134.687,172.762 134.305 C 172.243 133.311,172.313 121.735,172.848 120.028 C 173.094 119.243,173.544 118.009,173.848 117.286 C 174.152 116.564,174.400 115.619,174.400 115.186 C 174.400 114.754,174.580 114.400,174.800 114.400 C 175.020 114.400,175.200 113.972,175.200 113.449 C 175.200 112.926,175.470 112.274,175.800 112.000 C 176.130 111.726,176.400 111.254,176.400 110.951 C 176.400 110.648,176.536 110.400,176.702 110.400 C 176.869 110.400,177.261 109.815,177.574 109.100 C 178.097 107.906,185.068 100.400,185.654 100.400 C 185.794 100.400,186.987 99.680,188.305 98.800 C 189.623 97.920,190.993 97.200,191.350 97.200 C 191.708 97.200,192.000 97.040,192.000 96.845 C 192.000 96.650,192.495 96.401,193.100 96.291 C 193.705 96.181,194.830 95.864,195.600 95.585 C 196.370 95.307,197.270 94.983,197.600 94.865 C 200.657 93.778,214.000 93.794,214.000 94.885 C 214.000 95.058,214.495 95.206,215.100 95.213 C 215.705 95.220,216.549 95.490,216.976 95.813 C 217.404 96.136,218.169 96.400,218.676 96.400 C 219.184 96.400,219.600 96.580,219.600 96.800 C 219.600 97.020,219.882 97.200,220.227 97.200 C 220.571 97.200,221.443 97.650,222.164 98.200 C 223.433 99.168,224.669 99.559,224.234 98.855 C 222.235 95.621,208.303 92.531,201.000 93.701 M110.194 95.273 C 110.084 95.563,110.040 110.200,110.097 127.800 L 110.200 159.800 129.242 159.904 C 143.435 159.981,148.850 159.879,150.506 159.504 C 152.364 159.082,149.268 159.022,131.563 159.133 L 110.400 159.267 110.400 127.333 L 110.400 95.400 129.300 95.489 C 147.385 95.574,153.600 95.926,153.600 96.864 C 153.600 97.049,153.915 97.206,154.300 97.213 C 155.894 97.241,160.267 101.547,161.686 104.484 C 162.110 105.360,162.544 105.989,162.651 105.882 C 162.857 105.676,161.923 103.772,160.640 101.780 C 159.695 100.312,156.265 97.531,154.400 96.721 C 153.630 96.386,152.460 95.864,151.800 95.561 C 150.057 94.760,110.495 94.487,110.194 95.273 M224.800 99.485 C 224.800 99.694,225.655 100.471,226.700 101.212 C 230.796 104.117,230.809 103.841,226.368 108.367 C 224.370 110.403,222.813 112.146,222.907 112.240 C 223.083 112.417,230.516 104.999,230.709 104.453 C 230.830 104.111,228.603 101.982,226.300 100.240 C 225.475 99.616,224.800 99.276,224.800 99.485 M162.833 111.500 L 162.867 116.600 163.450 114.200 C 163.981 112.014,163.631 106.400,162.964 106.400 C 162.874 106.400,162.815 108.695,162.833 111.500 M202.232 109.147 C 202.114 109.339,201.294 109.611,200.409 109.752 C 199.524 109.894,198.800 110.207,198.800 110.448 C 198.800 110.711,199.079 110.768,199.500 110.590 C 205.470 108.068,212.698 109.487,217.699 114.161 L 219.598 115.935 220.999 114.575 C 222.426 113.189,222.660 112.800,222.068 112.800 C 221.885 112.800,221.499 113.242,221.210 113.782 C 220.450 115.201,219.592 115.212,217.972 113.824 C 214.832 111.134,214.371 110.800,213.797 110.800 C 213.469 110.800,213.200 110.636,213.200 110.435 C 213.200 110.234,212.481 109.949,211.602 109.800 C 210.723 109.652,209.903 109.366,209.778 109.165 C 209.491 108.700,202.519 108.683,202.232 109.147 M125.590 111.026 C 125.162 112.153,125.056 117.560,125.443 118.567 C 125.805 119.512,143.651 119.512,145.545 118.567 C 147.006 117.839,148.000 116.168,148.000 114.443 C 148.000 112.519,147.404 112.701,147.362 114.639 C 147.280 118.388,145.743 118.880,134.600 118.720 L 126.200 118.600 126.200 114.600 L 126.200 110.600 135.662 110.600 C 140.866 110.600,145.041 110.465,144.939 110.300 C 144.836 110.135,140.529 110.000,135.366 110.000 L 125.980 110.000 125.590 111.026 M146.202 111.602 C 146.602 112.044,147.011 112.322,147.112 112.221 C 147.328 112.005,146.188 110.800,145.767 110.800 C 145.607 110.800,145.803 111.161,146.202 111.602 M196.313 111.800 C 195.720 112.350,195.061 112.800,194.848 112.800 C 194.312 112.800,190.800 116.871,190.800 117.493 C 190.800 117.772,190.623 118.000,190.408 118.000 C 190.192 118.000,189.902 118.450,189.764 119.000 C 189.626 119.550,189.373 120.000,189.202 120.000 C 188.891 120.000,188.820 120.261,188.009 124.400 C 187.552 126.729,187.835 131.851,188.441 132.225 C 188.638 132.347,188.800 132.887,188.800 133.424 C 188.800 133.961,188.980 134.400,189.200 134.400 C 189.420 134.400,189.600 134.738,189.600 135.151 C 189.600 135.564,189.870 136.126,190.200 136.400 C 190.530 136.674,190.800 137.055,190.800 137.246 C 190.800 138.119,194.788 142.096,196.570 142.999 C 197.247 143.342,198.070 143.776,198.400 143.965 C 202.331 146.209,209.227 146.617,211.380 144.733 C 211.589 144.550,212.094 144.400,212.501 144.400 C 213.346 144.400,219.200 140.203,219.200 139.597 C 219.200 138.466,220.785 139.669,225.261 144.199 C 227.977 146.949,230.352 149.199,230.537 149.199 C 230.722 149.200,228.440 146.744,225.466 143.742 L 220.058 138.284 217.729 140.366 C 207.126 149.841,191.856 144.704,188.576 130.557 C 187.088 124.142,190.522 116.170,196.421 112.348 C 197.509 111.642,198.400 111.006,198.400 110.933 C 198.400 110.467,197.224 110.956,196.313 111.800 M161.633 118.234 C 161.157 119.041,160.836 119.904,160.920 120.151 C 161.005 120.398,161.475 119.818,161.965 118.861 C 163.068 116.709,162.815 116.231,161.633 118.234 M158.500 122.548 C 156.423 124.629,156.408 124.875,158.300 125.837 C 159.125 126.257,159.890 126.694,160.000 126.809 C 160.350 127.176,162.362 128.400,162.614 128.400 C 163.017 128.400,161.901 127.464,160.109 126.299 C 159.178 125.695,158.244 125.200,158.032 125.200 C 156.989 125.200,157.368 124.283,159.094 122.637 C 160.142 121.637,160.820 120.824,160.600 120.831 C 160.380 120.838,159.435 121.610,158.500 122.548 M162.800 128.978 C 162.800 129.129,163.250 129.843,163.800 130.564 C 164.350 131.286,164.800 132.174,164.800 132.538 C 164.800 132.902,164.954 133.200,165.143 133.200 C 166.403 133.200,166.456 144.675,165.207 147.165 C 165.032 147.514,164.558 148.475,164.153 149.300 C 163.749 150.125,163.279 150.800,163.109 150.800 C 162.939 150.800,162.800 151.027,162.800 151.304 C 162.800 152.351,157.828 156.800,156.659 156.800 C 156.296 156.800,156.000 156.941,156.000 157.112 C 156.000 157.284,155.427 157.641,154.726 157.905 C 154.026 158.170,153.555 158.489,153.681 158.614 C 154.551 159.484,161.652 154.309,163.304 151.600 C 163.774 150.830,164.261 150.110,164.387 150.000 C 166.228 148.394,167.379 140.069,166.367 135.677 C 165.704 132.798,162.800 127.344,162.800 128.978 M125.680 134.080 C 125.176 134.584,124.981 142.563,125.443 143.767 C 125.656 144.322,126.970 144.400,136.069 144.400 L 146.453 144.400 147.762 143.402 C 150.947 140.972,150.521 136.773,146.839 134.303 C 145.530 133.424,126.536 133.224,125.680 134.080 M146.678 134.782 C 149.711 136.632,150.159 140.720,147.566 142.885 L 146.230 144.000 136.115 144.000 L 126.000 144.000 126.000 139.267 C 126.000 136.663,126.120 134.413,126.267 134.267 C 127.005 133.528,145.383 133.993,146.678 134.782 M175.200 142.547 C 175.200 144.077,184.265 154.800,185.559 154.800 C 185.770 154.800,186.188 155.025,186.487 155.300 C 186.786 155.575,187.384 155.996,187.815 156.236 C 188.247 156.476,189.476 157.159,190.546 157.754 C 191.617 158.349,192.697 158.754,192.946 158.653 C 193.196 158.553,192.815 158.235,192.100 157.948 C 191.385 157.660,190.800 157.284,190.800 157.112 C 190.800 156.941,190.545 156.800,190.232 156.800 C 189.519 156.800,187.206 155.502,187.203 155.100 C 187.201 154.935,186.973 154.800,186.696 154.800 C 186.419 154.800,185.707 154.350,185.113 153.800 C 184.520 153.250,183.946 152.800,183.837 152.800 C 183.613 152.800,181.599 150.762,179.800 148.716 C 178.459 147.191,177.920 146.390,176.974 144.518 C 176.362 143.307,175.200 142.016,175.200 142.547 M228.800 151.200 C 227.902 152.080,227.038 152.800,226.880 152.800 C 226.721 152.800,226.131 153.227,225.568 153.750 C 224.136 155.077,221.335 156.800,220.608 156.800 C 220.274 156.800,220.000 156.980,220.000 157.200 C 220.000 157.420,219.752 157.600,219.449 157.600 C 219.146 157.600,218.674 157.870,218.400 158.200 C 217.694 159.051,218.100 158.951,220.286 157.736 C 221.339 157.151,222.560 156.476,223.000 156.236 C 225.144 155.067,231.481 149.600,230.691 149.600 C 230.549 149.600,229.698 150.320,228.800 151.200 M194.600 159.371 C 196.060 160.043,199.218 160.804,200.477 160.788 C 202.115 160.766,200.402 160.122,197.906 159.821 C 196.645 159.669,195.509 159.377,195.383 159.172 C 195.256 158.967,194.758 158.804,194.276 158.809 C 193.526 158.817,193.572 158.897,194.600 159.371 M215.823 159.163 C 215.700 159.362,214.736 159.644,213.680 159.789 C 211.609 160.074,209.938 160.797,211.400 160.776 C 213.238 160.750,218.553 158.873,216.924 158.825 C 216.442 158.811,215.946 158.963,215.823 159.163 M203.700 161.096 C 204.965 161.175,207.035 161.175,208.300 161.096 C 209.565 161.016,208.530 160.951,206.000 160.951 C 203.470 160.951,202.435 161.016,203.700 161.096 M133.200 239.588 C 131.550 239.981,129.840 240.440,129.400 240.608 C 120.587 243.966,113.834 249.968,109.874 257.961 C 109.045 259.635,109.033 259.836,109.800 259.200 C 110.130 258.926,110.400 258.426,110.400 258.089 C 110.400 257.751,110.809 256.919,111.308 256.238 C 111.808 255.557,112.483 254.477,112.808 253.838 C 113.519 252.441,119.187 246.400,119.786 246.400 C 120.018 246.400,120.667 245.995,121.227 245.500 C 122.148 244.686,122.913 244.215,125.400 242.928 C 125.840 242.700,126.768 242.219,127.462 241.857 C 128.156 241.496,129.101 241.200,129.562 241.200 C 130.023 241.200,130.400 241.020,130.400 240.800 C 130.400 240.580,130.896 240.400,131.503 240.400 C 132.109 240.400,133.234 240.197,134.003 239.949 C 134.771 239.701,137.650 239.371,140.400 239.217 L 145.400 238.935 140.800 238.904 C 137.669 238.883,135.242 239.101,133.200 239.588 M146.247 239.593 C 146.713 239.781,147.930 240.061,148.952 240.214 C 149.974 240.367,150.908 240.652,151.029 240.846 C 151.149 241.041,151.606 241.200,152.045 241.200 C 152.484 241.200,153.869 241.773,155.122 242.474 C 156.375 243.175,157.866 243.984,158.435 244.271 C 159.005 244.559,159.798 245.155,160.197 245.597 C 160.597 246.039,161.070 246.400,161.248 246.400 C 161.771 246.400,164.800 249.323,164.800 249.828 C 164.800 250.081,164.350 250.626,163.800 251.039 C 163.250 251.452,162.800 251.895,162.800 252.024 C 162.800 252.152,160.927 254.165,158.637 256.496 L 154.475 260.735 153.500 259.668 C 151.935 257.954,150.373 256.742,149.922 256.893 C 149.692 256.969,150.201 257.559,151.052 258.203 C 151.903 258.848,153.050 259.796,153.600 260.310 L 154.600 261.245 160.106 255.540 C 166.353 249.067,166.166 249.675,162.770 246.902 C 157.521 242.618,150.004 239.118,146.280 239.225 L 145.400 239.251 146.247 239.593 M174.184 240.500 C 174.079 240.775,174.040 255.400,174.097 273.000 L 174.200 305.000 199.000 305.110 C 212.640 305.171,224.209 305.122,224.709 305.001 L 225.617 304.780 225.509 297.090 L 225.400 289.400 207.800 289.200 L 190.200 289.000 190.200 285.000 L 190.200 281.000 203.580 280.895 C 213.673 280.815,217.037 280.668,217.274 280.295 C 217.938 279.248,217.658 265.308,216.967 265.043 C 216.619 264.909,210.519 264.800,203.410 264.800 C 188.560 264.800,190.000 265.289,190.000 260.247 C 190.000 255.618,188.358 256.000,208.280 256.000 L 225.600 256.000 225.600 248.243 C 225.600 241.538,225.514 240.453,224.967 240.243 C 223.614 239.723,174.385 239.973,174.184 240.500 M236.984 240.500 C 236.879 240.775,236.840 255.400,236.897 273.000 L 237.000 305.000 244.800 305.013 L 252.600 305.025 244.900 304.904 L 237.200 304.783 237.200 272.692 L 237.200 240.600 242.300 240.697 C 245.105 240.750,254.060 240.851,262.200 240.922 C 274.737 241.032,277.183 241.148,278.200 241.683 C 278.860 242.030,280.390 242.807,281.600 243.408 C 282.810 244.010,283.890 244.624,284.000 244.772 C 284.110 244.921,284.876 245.550,285.702 246.170 C 287.443 247.477,290.800 252.324,290.800 253.530 C 290.800 253.983,290.964 254.454,291.165 254.578 C 291.366 254.703,291.656 255.568,291.810 256.502 C 292.142 258.517,292.770 259.869,292.785 258.600 C 292.809 256.483,290.875 251.714,288.809 248.798 C 287.001 246.245,281.412 242.000,279.860 242.000 C 279.585 242.000,279.183 241.823,278.966 241.606 C 277.454 240.094,237.540 239.042,236.984 240.500 M224.800 248.200 L 224.800 255.600 207.649 255.600 C 187.620 255.600,189.525 255.042,189.686 260.858 L 189.800 265.000 203.300 265.105 L 216.800 265.211 216.800 272.605 L 216.800 280.000 203.974 280.000 C 188.407 280.000,189.600 279.585,189.600 285.000 C 189.600 290.467,187.884 290.000,207.974 290.000 L 224.800 290.000 224.800 297.400 L 224.800 304.800 199.600 304.800 L 174.400 304.800 174.400 272.800 L 174.400 240.800 199.600 240.800 L 224.800 240.800 224.800 248.200 M138.400 254.400 C 137.985 254.668,138.788 254.788,141.000 254.788 C 143.212 254.788,144.015 254.668,143.600 254.400 C 143.270 254.187,142.100 254.012,141.000 254.012 C 139.900 254.012,138.730 254.187,138.400 254.400 M134.100 255.524 C 133.385 255.865,132.800 256.303,132.800 256.496 C 132.800 256.689,133.025 256.702,133.300 256.524 C 133.575 256.346,134.700 255.897,135.800 255.526 C 137.447 254.972,137.588 254.857,136.600 254.878 C 135.940 254.893,134.815 255.183,134.100 255.524 M144.800 255.061 C 145.130 255.170,145.760 255.403,146.200 255.579 C 146.640 255.756,147.495 256.099,148.100 256.342 C 148.705 256.584,149.200 256.621,149.200 256.423 C 149.200 256.225,148.660 255.945,148.000 255.800 C 147.340 255.655,146.800 255.371,146.800 255.168 C 146.800 254.966,146.215 254.814,145.500 254.832 C 144.785 254.849,144.470 254.952,144.800 255.061 M252.800 255.900 C 252.799 256.065,257.024 256.149,262.188 256.086 C 274.183 255.940,275.918 256.591,276.315 261.382 C 276.782 267.014,274.511 268.064,262.188 267.914 C 257.024 267.851,252.799 267.935,252.800 268.100 C 252.800 268.855,271.950 268.429,273.419 267.641 C 275.016 266.785,276.400 265.345,276.400 264.539 C 276.400 264.242,276.580 264.000,276.800 264.000 C 277.020 264.000,277.200 263.100,277.200 262.000 C 277.200 260.900,277.020 260.000,276.800 260.000 C 276.580 260.000,276.400 259.680,276.400 259.289 C 276.400 258.485,275.218 257.347,273.301 256.305 C 271.940 255.566,252.800 255.187,252.800 255.900 M127.963 260.063 C 126.223 261.857,124.800 263.552,124.800 263.830 C 124.800 264.108,124.500 264.935,124.132 265.668 C 123.765 266.400,123.315 267.313,123.132 267.695 C 122.403 269.220,122.748 276.943,123.628 278.764 C 124.741 281.066,124.914 280.691,123.984 277.996 C 121.586 271.049,124.448 262.635,130.760 258.072 C 131.870 257.270,132.263 256.800,131.823 256.800 C 131.440 256.800,129.703 258.268,127.963 260.063 M292.928 262.000 C 292.928 263.430,293.001 264.015,293.089 263.300 C 293.178 262.585,293.178 261.415,293.089 260.700 C 293.001 259.985,292.928 260.570,292.928 262.000 M108.436 261.646 C 108.145 262.611,107.750 263.850,107.559 264.400 C 107.367 264.950,107.038 266.959,106.827 268.864 C 103.344 300.361,141.022 319.036,163.697 297.051 L 165.993 294.824 160.724 289.412 C 154.943 283.474,154.848 283.423,153.047 285.300 C 145.212 293.467,133.118 292.162,126.037 282.387 C 125.311 281.385,124.800 280.952,124.800 281.340 C 124.800 281.703,124.968 282.000,125.173 282.000 C 125.378 282.000,125.647 282.319,125.771 282.709 C 126.558 285.187,132.179 289.274,136.828 290.747 C 138.594 291.307,143.863 291.345,144.200 290.800 C 144.336 290.580,144.904 290.400,145.462 290.400 C 146.463 290.400,148.874 289.284,149.133 288.700 C 149.207 288.535,149.486 288.400,149.753 288.400 C 150.021 288.400,151.250 287.500,152.484 286.400 C 155.238 283.946,154.441 283.713,158.854 288.265 C 160.914 290.390,163.223 292.722,163.985 293.446 L 165.371 294.762 162.878 297.157 C 161.507 298.473,160.028 299.664,159.592 299.802 C 159.157 299.941,158.800 300.222,158.800 300.427 C 158.800 300.632,158.592 300.800,158.338 300.800 C 158.084 300.800,157.286 301.250,156.564 301.800 C 155.843 302.350,155.076 302.800,154.859 302.800 C 154.642 302.800,153.865 303.100,153.132 303.468 C 150.673 304.700,150.414 304.800,149.672 304.800 C 149.266 304.800,148.800 304.935,148.637 305.100 C 147.509 306.244,133.296 306.292,132.867 305.154 C 132.793 304.959,132.219 304.800,131.590 304.800 C 130.962 304.800,130.336 304.620,130.200 304.400 C 130.064 304.180,129.648 303.999,129.276 303.998 C 128.904 303.996,128.084 303.726,127.454 303.398 C 126.824 303.069,126.136 302.800,125.924 302.800 C 124.426 302.800,117.501 297.348,114.800 294.042 C 114.030 293.100,113.220 292.112,113.000 291.847 C 107.590 285.339,105.378 269.155,108.886 261.739 C 109.110 261.266,109.219 260.657,109.128 260.385 C 109.038 260.114,108.726 260.681,108.436 261.646 M292.249 265.415 C 292.112 265.773,291.999 266.366,291.998 266.733 C 291.996 267.100,291.726 267.916,291.398 268.546 C 291.069 269.176,290.800 270.020,290.800 270.422 C 290.800 270.824,290.625 271.261,290.411 271.393 C 290.197 271.526,289.714 272.282,289.339 273.073 C 288.597 274.635,284.740 278.800,284.035 278.800 C 283.796 278.800,283.600 278.980,283.600 279.200 C 283.600 279.420,283.352 279.600,283.049 279.600 C 282.746 279.600,282.274 279.870,282.000 280.200 C 280.355 282.182,284.796 279.127,287.320 276.541 C 289.295 274.516,291.530 270.358,292.401 267.089 C 292.886 265.267,292.775 264.045,292.249 265.415 M280.000 281.386 C 280.000 282.028,281.392 284.634,283.467 287.878 C 284.200 289.024,284.800 290.065,284.800 290.192 C 284.800 290.319,285.844 292.083,287.121 294.111 C 288.398 296.140,289.567 298.070,289.719 298.400 C 289.871 298.730,290.221 299.356,290.497 299.790 C 290.774 300.225,291.583 301.530,292.295 302.690 L 293.590 304.800 284.015 304.800 L 274.441 304.800 273.420 303.462 C 272.859 302.726,272.400 301.849,272.400 301.511 C 272.400 301.174,272.130 300.674,271.800 300.400 C 271.470 300.126,271.200 299.654,271.200 299.351 C 271.200 299.048,271.040 298.800,270.843 298.800 C 270.647 298.800,270.374 298.350,270.236 297.800 C 270.098 297.250,269.808 296.800,269.592 296.800 C 269.006 296.800,269.082 296.999,270.544 299.292 C 271.284 300.452,272.010 301.785,272.157 302.255 C 272.305 302.726,272.861 303.581,273.394 304.155 L 274.362 305.200 283.957 305.200 C 293.046 305.200,295.097 304.959,293.711 304.055 C 293.380 303.839,291.952 301.437,290.228 298.194 C 289.993 297.751,289.395 296.823,288.900 296.133 C 288.405 295.442,288.000 294.679,288.000 294.438 C 288.000 294.197,287.841 294.000,287.647 294.000 C 287.452 294.000,287.184 293.685,287.050 293.300 C 286.917 292.915,286.260 291.700,285.591 290.600 C 284.922 289.500,284.263 288.330,284.126 288.000 C 283.990 287.670,283.654 287.130,283.379 286.800 C 282.212 285.398,280.743 282.259,280.927 281.559 C 281.052 281.079,280.918 280.800,280.563 280.800 C 280.253 280.800,280.000 281.064,280.000 281.386 M253.280 283.280 C 252.593 283.967,252.685 284.593,253.388 284.010 C 253.788 283.678,255.188 283.566,257.771 283.661 C 261.948 283.814,261.916 283.795,263.578 287.000 C 264.034 287.880,264.936 289.500,265.581 290.600 C 266.227 291.700,267.163 293.378,267.663 294.329 C 268.162 295.280,268.713 296.146,268.886 296.253 C 269.615 296.704,269.082 295.471,267.276 292.532 C 266.218 290.809,265.003 288.708,264.576 287.861 C 263.131 284.997,263.011 284.800,262.705 284.800 C 262.537 284.800,262.400 284.559,262.400 284.264 C 262.400 282.930,254.484 282.076,253.280 283.280 " stroke="none" fill="#40c9dd" fill-rule="evenodd"></path>
    <path id="path4" d="M199.600 93.282 C 198.830 93.502,197.210 93.953,196.000 94.285 C 194.790 94.616,192.928 95.318,191.863 95.844 C 190.798 96.370,189.765 96.800,189.568 96.800 C 189.370 96.800,187.722 97.860,185.905 99.156 C 163.024 115.471,167.501 149.801,193.800 159.693 C 205.997 164.281,218.202 161.811,228.553 152.659 C 232.040 149.576,232.073 149.692,225.940 143.398 C 220.052 137.356,219.961 137.316,217.540 139.744 C 210.136 147.168,199.070 146.229,192.200 137.594 C 187.491 131.676,187.973 121.833,193.267 115.818 C 199.537 108.696,210.416 108.118,217.400 114.535 C 218.500 115.546,219.502 116.379,219.627 116.387 C 220.120 116.416,231.200 104.828,231.200 104.284 C 231.200 103.965,230.450 103.096,229.534 102.352 C 228.618 101.608,227.673 100.813,227.434 100.586 C 225.519 98.757,218.526 94.800,217.210 94.800 C 216.852 94.800,216.389 94.643,216.180 94.450 C 214.720 93.106,203.085 92.286,199.600 93.282 M210.354 93.634 C 217.510 94.807,223.770 97.762,228.913 102.396 C 231.256 104.506,231.648 103.686,225.108 110.353 L 219.615 115.951 217.708 114.169 C 210.656 107.578,200.688 107.758,193.803 114.600 C 177.392 130.908,200.485 155.776,217.729 140.366 L 220.058 138.284 225.429 143.705 C 231.609 149.942,231.359 149.371,228.900 151.657 C 225.023 155.263,222.190 157.031,216.200 159.585 C 211.393 161.634,198.531 161.482,194.400 159.327 C 193.850 159.040,193.181 158.804,192.914 158.802 C 192.647 158.801,191.567 158.321,190.514 157.736 C 189.461 157.151,188.247 156.476,187.815 156.236 C 187.384 155.996,186.786 155.575,186.487 155.300 C 186.188 155.025,185.770 154.800,185.559 154.800 C 183.484 154.800,175.444 144.115,173.669 139.000 C 171.813 133.649,171.286 123.468,172.639 119.075 C 174.873 111.822,178.766 105.380,182.800 102.261 C 183.570 101.666,185.010 100.547,186.000 99.776 C 192.153 94.981,202.560 92.356,210.354 93.634 M110.098 94.716 C 109.700 94.981,109.617 101.836,109.698 127.625 L 109.800 160.200 130.600 160.200 C 153.359 160.200,152.362 160.292,157.211 157.756 C 169.523 151.319,170.946 131.308,159.520 125.301 L 158.041 124.523 159.607 122.993 C 160.969 121.663,162.117 119.746,163.771 116.038 C 166.603 109.689,161.744 99.613,154.051 95.885 L 151.400 94.600 131.000 94.491 C 119.780 94.431,110.374 94.533,110.098 94.716 M151.800 95.561 C 152.460 95.864,153.630 96.386,154.400 96.721 C 164.439 101.083,166.925 115.453,158.916 122.834 C 157.342 124.285,157.000 125.200,158.032 125.200 C 160.694 125.200,165.282 130.967,166.367 135.677 C 167.379 140.069,166.228 148.394,164.387 150.000 C 164.261 150.110,163.774 150.830,163.304 151.600 C 158.814 158.961,154.200 160.080,129.000 159.920 L 110.200 159.800 110.097 127.800 C 110.040 110.200,110.084 95.563,110.194 95.273 C 110.495 94.487,150.057 94.760,151.800 95.561 M126.183 110.899 C 126.064 111.210,126.019 113.069,126.083 115.032 L 126.200 118.600 134.600 118.720 C 145.765 118.880,147.281 118.392,147.362 114.610 C 147.393 113.157,147.191 112.609,146.292 111.709 L 145.183 110.600 135.791 110.468 C 127.991 110.358,126.363 110.431,126.183 110.899 M145.638 111.886 C 146.667 112.494,146.800 112.795,146.800 114.515 C 146.800 117.810,146.890 117.782,135.929 117.920 L 126.400 118.040 126.400 114.620 L 126.400 111.200 135.438 111.200 C 143.259 111.200,144.633 111.292,145.638 111.886 M126.267 134.267 C 126.120 134.413,126.000 136.663,126.000 139.267 L 126.000 144.000 136.115 144.000 L 146.230 144.000 147.566 142.885 C 150.159 140.720,149.711 136.632,146.678 134.782 C 145.383 133.993,127.005 133.528,126.267 134.267 M147.644 136.385 C 148.976 137.980,149.146 139.733,148.139 141.487 C 147.003 143.467,146.232 143.600,135.920 143.600 L 126.400 143.600 126.400 139.180 L 126.400 134.761 136.444 134.880 L 146.489 135.000 147.644 136.385 M139.700 165.891 C 140.525 165.978,141.875 165.978,142.700 165.891 C 143.525 165.805,142.850 165.734,141.200 165.734 C 139.550 165.734,138.875 165.805,139.700 165.891 M133.600 166.400 C 132.836 166.894,133.658 166.894,135.200 166.400 L 136.200 166.080 135.200 166.046 C 134.650 166.027,133.930 166.187,133.600 166.400 M146.400 166.400 C 147.942 166.894,148.764 166.894,148.000 166.400 C 147.670 166.187,146.950 166.027,146.400 166.046 L 145.400 166.080 146.400 166.400 M236.253 166.681 C 235.929 167.005,235.919 231.324,236.243 232.167 C 236.609 233.122,252.591 233.122,252.957 232.167 C 253.091 231.819,253.200 225.159,253.200 217.367 C 253.200 209.575,253.335 203.200,253.500 203.200 C 253.811 203.201,254.913 204.141,260.000 208.746 C 267.046 215.123,270.400 218.061,270.400 217.853 C 270.400 217.548,267.883 215.218,263.316 211.293 C 262.830 210.875,260.715 208.946,258.617 207.005 C 253.874 202.618,253.262 202.168,252.998 202.875 C 252.890 203.164,252.756 209.880,252.701 217.800 L 252.600 232.200 244.600 232.200 L 236.600 232.200 236.498 199.700 C 236.389 165.124,236.344 165.950,238.202 168.002 C 238.602 168.444,239.021 168.712,239.135 168.598 C 239.249 168.485,238.995 168.121,238.571 167.789 C 237.280 166.780,236.518 166.416,236.253 166.681 M129.800 167.452 C 128.535 168.070,128.760 168.043,131.800 167.211 C 132.893 166.911,132.911 166.881,132.000 166.873 C 131.450 166.869,130.460 167.129,129.800 167.452 M151.391 167.792 C 152.927 168.319,154.257 168.676,154.349 168.585 C 154.440 168.493,154.174 168.298,153.757 168.150 C 153.341 168.003,152.393 167.638,151.651 167.341 C 150.909 167.043,149.919 166.808,149.451 166.817 C 148.983 166.826,149.856 167.265,151.391 167.792 M189.576 167.829 C 188.981 168.546,187.207 173.242,186.942 174.800 C 186.749 175.940,187.349 174.579,188.884 170.400 L 189.839 167.800 198.191 167.692 C 204.590 167.609,206.626 167.702,206.902 168.092 C 207.173 168.475,207.221 168.453,207.097 168.000 C 206.841 167.060,190.348 166.899,189.576 167.829 M272.032 167.900 C 272.050 168.318,272.144 168.399,272.265 168.100 C 272.602 167.266,287.835 167.393,288.157 168.233 C 288.291 168.581,288.400 183.251,288.400 200.833 C 288.400 235.581,288.526 233.838,286.161 231.700 C 280.271 226.376,278.671 224.980,278.312 224.850 C 278.084 224.767,279.045 225.740,280.449 227.011 C 281.852 228.283,283.707 229.971,284.572 230.762 C 286.297 232.340,288.032 233.593,288.500 233.597 C 289.043 233.602,288.865 168.225,288.320 167.680 C 287.448 166.808,271.992 167.017,272.032 167.900 M125.854 168.978 C 124.784 169.502,123.704 170.143,123.454 170.401 C 123.084 170.784,127.809 168.609,128.367 168.140 C 128.885 167.704,127.538 168.153,125.854 168.978 M155.424 169.387 C 156.439 170.156,157.034 170.163,156.400 169.400 C 156.126 169.070,155.620 168.800,155.275 168.800 C 154.772 168.800,154.802 168.917,155.424 169.387 M207.200 168.865 C 207.200 169.282,209.167 173.780,209.183 173.400 C 209.205 172.869,207.848 169.315,207.485 168.952 C 207.328 168.795,207.200 168.756,207.200 168.865 M241.610 170.826 C 243.757 172.938,246.336 175.262,248.422 176.966 C 249.734 178.037,245.893 174.293,243.568 172.234 C 240.105 169.168,239.432 168.684,241.610 170.826 M118.301 173.870 C 117.037 174.896,116.078 175.812,116.171 175.905 C 116.264 175.998,116.939 175.533,117.670 174.873 C 118.402 174.213,119.450 173.302,120.000 172.850 C 120.550 172.397,120.910 172.022,120.800 172.015 C 120.690 172.009,119.566 172.844,118.301 173.870 M161.600 173.186 C 162.370 173.902,163.508 174.918,164.128 175.442 C 165.809 176.862,165.491 177.441,159.878 183.174 C 154.405 188.765,154.379 188.778,152.596 186.785 C 151.768 185.861,149.041 184.000,148.513 184.000 C 148.347 184.000,149.108 184.609,150.205 185.353 C 151.302 186.097,152.636 187.177,153.170 187.753 C 154.548 189.241,154.356 189.363,160.439 183.100 C 166.826 176.523,166.622 177.017,163.900 174.742 C 161.109 172.410,159.855 171.561,161.600 173.186 M210.000 176.280 C 210.000 176.848,211.682 180.852,211.850 180.683 C 212.005 180.528,210.542 176.409,210.216 176.083 C 210.097 175.964,210.000 176.053,210.000 176.280 M114.577 177.500 C 113.323 178.807,109.880 184.013,110.115 184.248 C 110.205 184.338,110.969 183.284,111.812 181.906 C 112.656 180.528,113.448 179.307,113.573 179.194 C 113.698 179.080,114.329 178.405,114.975 177.694 C 116.402 176.122,116.059 175.955,114.577 177.500 M185.600 178.039 C 185.600 178.134,185.240 179.196,184.800 180.400 C 184.360 181.604,184.009 182.771,184.021 182.994 C 184.032 183.217,184.319 182.680,184.657 181.800 C 184.996 180.920,185.467 179.795,185.704 179.301 C 185.941 178.806,186.014 178.281,185.867 178.134 C 185.720 177.987,185.600 177.944,185.600 178.039 M250.006 178.211 C 250.003 178.437,250.405 178.960,250.900 179.373 C 251.961 180.257,257.710 185.299,258.000 185.600 C 258.110 185.714,259.640 187.065,261.400 188.604 C 263.160 190.142,264.732 191.580,264.894 191.800 C 265.088 192.064,265.190 192.060,265.194 191.789 C 265.197 191.563,264.795 191.040,264.300 190.627 C 262.870 189.435,257.570 184.762,255.600 182.956 C 254.610 182.048,253.080 180.697,252.200 179.953 C 251.320 179.210,250.468 178.421,250.306 178.201 C 250.112 177.936,250.010 177.939,250.006 178.211 M212.012 181.505 C 212.005 181.783,212.162 182.323,212.359 182.705 C 212.557 183.087,213.180 184.660,213.743 186.200 C 214.307 187.740,214.960 189.520,215.195 190.155 C 215.430 190.791,215.714 191.219,215.826 191.107 C 216.017 190.916,215.846 190.406,214.584 187.400 C 214.306 186.740,213.783 185.314,213.421 184.231 C 212.665 181.970,212.031 180.742,212.012 181.505 M136.124 182.739 C 134.982 183.103,133.902 183.564,133.724 183.764 C 133.532 183.979,133.726 184.001,134.200 183.818 C 137.858 182.403,140.873 182.182,145.400 182.997 C 146.060 183.116,145.790 182.943,144.800 182.612 C 142.492 181.843,138.770 181.897,136.124 182.739 M183.254 184.787 C 183.004 185.454,182.596 186.546,182.346 187.213 C 182.097 187.880,181.989 188.522,182.106 188.640 C 182.224 188.757,182.531 188.167,182.788 187.327 C 183.045 186.487,183.453 185.395,183.695 184.901 C 183.937 184.406,184.038 183.905,183.921 183.788 C 183.804 183.670,183.503 184.120,183.254 184.787 M130.296 185.809 C 127.150 188.279,123.933 192.956,124.021 194.933 C 124.032 195.190,124.334 194.680,124.692 193.800 C 126.146 190.227,127.800 188.097,130.944 185.750 C 132.233 184.787,133.133 184.000,132.944 184.000 C 132.755 184.000,131.563 184.814,130.296 185.809 M109.285 185.613 C 109.018 186.040,108.807 186.617,108.816 186.895 C 108.825 187.173,109.109 186.889,109.447 186.265 C 110.150 184.968,110.018 184.438,109.285 185.613 M181.237 190.311 C 180.953 190.998,180.814 191.793,180.928 192.080 C 181.046 192.374,181.151 192.244,181.168 191.780 C 181.186 191.329,181.400 190.760,181.645 190.515 C 181.890 190.270,182.014 189.843,181.922 189.566 C 181.830 189.289,181.521 189.624,181.237 190.311 M107.249 191.252 C 106.960 192.271,106.809 193.441,106.915 193.852 C 107.045 194.359,107.122 194.238,107.154 193.474 C 107.179 192.854,107.391 191.990,107.625 191.553 C 107.859 191.116,107.989 190.453,107.913 190.079 C 107.837 189.706,107.538 190.233,107.249 191.252 M216.022 191.792 C 216.003 192.135,217.467 196.342,218.392 198.600 C 218.572 199.040,218.942 199.991,219.213 200.713 C 219.485 201.435,219.768 201.965,219.842 201.891 C 219.986 201.747,218.206 196.670,216.864 193.400 C 216.413 192.300,216.034 191.576,216.022 191.792 M268.567 194.900 C 271.344 197.555,272.000 197.994,272.000 197.200 C 272.000 196.980,271.842 196.845,271.650 196.900 C 271.457 196.955,270.512 196.296,269.550 195.434 C 266.238 192.472,265.748 192.205,268.567 194.900 M195.400 194.744 C 191.793 196.972,191.099 201.446,193.906 204.369 C 194.702 205.198,196.389 206.144,196.634 205.900 C 196.724 205.809,196.304 205.479,195.699 205.167 C 190.499 202.484,192.396 194.400,198.226 194.400 C 199.991 194.400,202.528 195.745,203.227 197.050 C 203.506 197.572,203.814 197.919,203.911 197.822 C 204.275 197.458,202.332 195.225,201.129 194.624 C 199.445 193.785,196.866 193.839,195.400 194.744 M179.600 194.839 C 179.600 194.934,179.243 195.987,178.807 197.180 C 178.371 198.372,178.077 199.411,178.154 199.487 C 178.230 199.563,178.515 199.035,178.787 198.313 C 179.058 197.591,179.473 196.595,179.708 196.101 C 179.942 195.606,180.014 195.081,179.867 194.934 C 179.720 194.787,179.600 194.744,179.600 194.839 M123.452 196.500 C 123.131 197.698,123.185 202.821,123.528 203.685 C 123.678 204.062,123.800 202.397,123.800 199.985 C 123.800 195.190,123.801 195.199,123.452 196.500 M106.252 196.900 C 105.941 198.060,106.014 202.250,106.372 203.800 C 106.530 204.484,106.650 203.066,106.653 200.500 C 106.657 195.722,106.631 195.488,106.252 196.900 M204.114 200.200 C 204.117 201.300,204.195 201.703,204.287 201.095 C 204.379 200.486,204.377 199.586,204.282 199.095 C 204.187 198.603,204.111 199.100,204.114 200.200 M177.291 201.300 C 176.610 203.184,176.704 203.694,177.426 202.030 C 177.753 201.277,177.966 200.499,177.901 200.302 C 177.835 200.105,177.560 200.554,177.291 201.300 M202.656 203.762 C 202.076 204.523,201.227 205.265,200.770 205.409 C 200.313 205.554,200.031 205.764,200.142 205.875 C 200.468 206.201,202.535 204.820,203.339 203.739 C 203.746 203.192,203.996 202.663,203.895 202.562 C 203.794 202.461,203.237 203.001,202.656 203.762 M220.000 202.910 C 220.000 203.263,220.180 203.664,220.400 203.800 C 220.620 203.936,220.800 204.295,220.800 204.598 C 220.800 205.370,221.584 207.349,221.804 207.130 C 221.991 206.942,220.598 202.865,220.216 202.483 C 220.097 202.364,220.000 202.556,220.000 202.910 M124.032 205.125 C 123.877 207.702,130.771 216.000,133.067 216.000 C 133.244 216.000,132.486 215.392,131.383 214.649 C 128.438 212.666,125.635 208.936,124.281 205.200 C 124.132 204.790,124.053 204.766,124.032 205.125 M106.876 206.600 C 106.868 207.260,107.119 208.430,107.433 209.200 C 108.061 210.735,108.005 210.089,107.224 206.800 C 106.897 205.420,106.892 205.417,106.876 206.600 M175.300 206.693 C 175.025 207.279,174.807 208.039,174.816 208.380 C 174.824 208.721,175.099 208.384,175.426 207.630 C 176.134 205.999,176.021 205.156,175.300 206.693 M222.017 207.851 C 222.008 208.099,222.243 208.909,222.541 209.651 C 222.838 210.393,223.203 211.341,223.350 211.757 C 223.498 212.174,223.704 212.429,223.809 212.324 C 223.914 212.220,223.557 211.069,223.017 209.767 C 222.476 208.465,222.026 207.603,222.017 207.851 M152.200 212.894 C 150.888 214.209,150.613 214.619,151.400 214.088 C 152.060 213.643,153.036 212.811,153.570 212.239 C 154.103 211.668,154.714 211.200,154.927 211.200 C 155.335 211.200,165.295 221.406,165.546 222.081 C 165.732 222.583,162.994 225.406,161.300 226.458 C 160.585 226.902,160.000 227.438,160.000 227.648 C 160.000 228.104,160.531 227.695,163.644 224.839 C 166.699 222.037,166.833 222.431,160.717 216.191 C 154.755 210.106,154.919 210.170,152.200 212.894 M173.285 212.173 C 173.018 212.759,172.807 213.544,172.816 213.919 C 172.824 214.293,173.099 213.984,173.426 213.230 C 174.127 211.614,173.994 210.617,173.285 212.173 M108.802 213.224 C 108.801 213.566,109.064 214.196,109.387 214.624 C 110.151 215.634,110.159 215.196,109.402 213.746 C 109.074 213.116,108.804 212.881,108.802 213.224 M224.017 212.959 C 223.986 213.609,225.753 218.142,225.884 217.749 C 225.954 217.538,225.567 216.293,225.023 214.982 C 224.479 213.672,224.026 212.762,224.017 212.959 M148.300 215.627 C 147.475 216.063,146.800 216.501,146.800 216.601 C 146.800 216.887,148.936 215.910,149.586 215.326 C 150.374 214.618,150.082 214.686,148.300 215.627 M110.004 215.705 C 109.993 216.585,113.267 221.170,115.642 223.600 C 118.673 226.703,123.393 230.341,123.826 229.908 C 123.910 229.824,122.858 229.011,121.489 228.102 C 117.607 225.523,114.560 222.378,111.704 218.000 C 110.771 216.570,110.006 215.537,110.004 215.705 M136.800 217.389 C 139.116 218.160,142.959 218.156,145.000 217.380 C 146.590 216.776,146.592 216.774,145.200 217.038 C 143.199 217.417,138.477 217.447,136.600 217.092 L 135.000 216.790 136.800 217.389 M171.287 217.887 C 168.950 224.074,168.029 227.111,169.372 224.200 C 170.422 221.925,172.087 217.154,171.898 216.964 C 171.793 216.860,171.519 217.275,171.287 217.887 M274.000 221.161 C 275.870 222.939,277.548 224.396,277.729 224.397 C 278.128 224.401,277.848 224.135,273.795 220.663 L 270.600 217.927 274.000 221.161 M226.026 218.705 C 226.012 218.983,226.161 219.523,226.357 219.905 C 226.553 220.287,226.920 221.118,227.172 221.752 C 227.424 222.385,227.726 222.808,227.843 222.691 C 227.960 222.574,227.885 222.145,227.676 221.739 C 227.467 221.333,227.016 220.370,226.674 219.600 C 226.331 218.830,226.040 218.427,226.026 218.705 M187.710 222.100 C 187.225 222.725,185.899 226.832,186.113 227.046 C 186.200 227.133,186.508 226.438,186.798 225.502 C 187.967 221.734,187.079 221.999,198.509 222.006 C 208.615 222.012,209.283 222.084,209.708 223.200 C 209.893 223.685,209.943 223.668,209.968 223.114 C 209.986 222.737,209.652 222.242,209.226 222.014 C 208.038 221.378,188.209 221.458,187.710 222.100 M228.000 224.110 C 228.000 224.463,228.180 224.864,228.400 225.000 C 228.620 225.136,228.800 225.495,228.800 225.798 C 228.800 226.570,229.584 228.549,229.804 228.330 C 229.991 228.142,228.598 224.065,228.216 223.683 C 228.097 223.564,228.000 223.756,228.000 224.110 M210.026 224.006 C 209.987 224.317,211.537 228.470,211.784 228.717 C 212.130 229.063,212.033 228.055,211.648 227.295 C 211.454 226.913,211.016 225.970,210.674 225.200 C 210.331 224.430,210.040 223.893,210.026 224.006 M157.901 228.737 C 157.296 229.101,156.801 229.547,156.801 229.727 C 156.800 229.983,158.285 229.125,159.567 228.130 C 160.101 227.714,158.823 228.180,157.901 228.737 M167.265 229.017 C 167.009 229.578,166.807 230.254,166.816 230.519 C 166.824 230.783,167.097 230.388,167.422 229.639 C 168.105 228.065,167.961 227.490,167.265 229.017 M230.210 229.600 C 230.350 230.150,230.561 231.005,230.679 231.500 L 230.893 232.400 222.267 232.400 C 214.483 232.400,213.597 232.332,213.205 231.700 C 212.808 231.060,212.781 231.069,212.891 231.800 C 213.006 232.569,213.359 232.604,222.105 232.708 C 232.295 232.828,231.960 232.937,230.578 229.946 C 230.172 229.067,230.044 228.947,230.210 229.600 M184.400 230.937 L 183.800 232.200 175.601 232.309 C 168.245 232.406,167.350 232.347,166.901 231.732 C 166.444 231.107,166.400 231.124,166.400 231.924 C 166.400 232.799,166.411 232.800,175.190 232.800 L 183.979 232.800 184.614 231.573 C 184.963 230.898,185.193 230.194,185.124 230.009 C 185.056 229.825,184.730 230.242,184.400 230.937 M124.400 230.198 C 124.400 230.938,134.879 234.455,135.433 233.900 C 135.549 233.785,134.688 233.471,133.522 233.203 C 130.667 232.549,128.274 231.751,126.293 230.794 C 124.518 229.936,124.400 229.899,124.400 230.198 M154.300 230.847 C 153.475 231.264,152.800 231.691,152.800 231.795 C 152.800 232.033,154.749 231.201,155.789 230.518 C 156.933 229.767,156.046 229.962,154.300 230.847 M150.580 232.337 C 150.371 232.522,149.120 232.908,147.800 233.195 C 146.480 233.482,145.596 233.786,145.835 233.870 C 146.300 234.034,149.939 233.144,151.600 232.462 C 152.480 232.100,152.501 232.048,151.780 232.025 C 151.329 232.011,150.789 232.152,150.580 232.337 M138.900 234.294 C 139.945 234.376,141.655 234.376,142.700 234.294 C 143.745 234.212,142.890 234.144,140.800 234.144 C 138.710 234.144,137.855 234.212,138.900 234.294 M135.200 238.596 C 130.676 239.327,122.055 242.773,120.800 244.353 C 120.690 244.491,119.880 245.127,119.000 245.766 C 118.120 246.405,116.981 247.394,116.470 247.964 C 115.958 248.534,114.923 249.667,114.170 250.483 C 113.416 251.298,112.800 252.071,112.800 252.199 C 112.800 252.328,112.475 252.782,112.078 253.209 C 111.048 254.314,108.356 259.793,107.561 262.400 C 105.332 269.715,105.731 279.997,108.464 285.700 C 108.649 286.085,108.951 286.715,109.136 287.100 C 109.961 288.818,111.729 291.856,112.240 292.431 C 112.548 292.779,112.800 293.205,112.800 293.379 C 112.800 294.200,119.799 300.401,122.631 302.089 C 129.813 306.371,140.207 308.408,146.554 306.777 C 152.235 305.317,156.378 303.478,160.200 300.717 C 162.499 299.058,166.400 295.331,166.400 294.795 C 166.400 294.351,155.329 283.200,154.888 283.200 C 154.672 283.200,153.791 283.875,152.933 284.700 C 144.324 292.970,130.697 291.086,125.856 280.957 C 125.446 280.101,124.951 279.087,124.755 278.704 C 124.010 277.250,123.617 272.568,124.027 270.025 C 126.234 256.318,141.897 250.635,152.203 259.802 C 153.302 260.779,154.403 261.583,154.650 261.589 C 155.232 261.603,166.000 250.243,166.000 249.616 C 166.000 249.133,162.024 245.209,161.529 245.203 C 161.379 245.201,161.015 244.958,160.720 244.663 C 159.982 243.925,155.482 241.423,153.200 240.481 C 147.674 238.200,141.592 237.563,135.200 238.596 M149.433 239.744 C 154.902 241.294,164.766 247.241,165.476 249.418 C 165.551 249.647,163.134 252.396,160.106 255.526 L 154.600 261.217 153.000 259.791 C 150.814 257.843,148.000 256.000,147.211 256.000 C 146.853 256.000,146.346 255.786,146.083 255.523 C 144.338 253.778,135.705 254.941,131.710 257.460 C 117.924 266.151,121.637 286.622,137.677 290.362 C 142.821 291.562,148.988 289.531,153.047 285.300 C 154.848 283.423,154.943 283.474,160.724 289.412 L 165.993 294.824 163.697 297.051 C 141.025 319.033,103.284 300.324,106.835 268.864 C 107.198 265.648,107.439 264.582,108.519 261.400 C 111.716 251.983,119.259 244.472,129.400 240.608 C 134.148 238.799,144.518 238.351,149.433 239.744 M174.098 239.931 C 173.700 240.184,173.617 247.030,173.698 272.825 L 173.800 305.400 199.555 305.503 C 218.247 305.578,225.460 305.482,225.855 305.154 C 226.465 304.648,226.663 290.233,226.073 289.304 C 225.832 288.925,221.672 288.784,208.379 288.704 L 191.000 288.600 191.000 285.000 L 191.000 281.400 204.400 281.200 L 217.800 281.000 218.000 273.238 C 218.126 268.365,218.051 265.277,217.800 264.940 C 217.483 264.515,214.673 264.383,204.200 264.302 L 191.000 264.200 191.000 260.616 L 191.000 257.033 192.400 256.724 C 193.170 256.553,200.980 256.426,209.756 256.441 C 222.642 256.462,225.776 256.365,226.050 255.934 C 226.602 255.062,226.484 240.644,225.920 240.080 C 225.363 239.523,174.969 239.378,174.098 239.931 M236.700 239.862 C 236.041 240.047,236.000 241.951,236.000 272.622 L 236.000 305.185 236.900 305.406 C 237.395 305.528,241.220 305.576,245.400 305.514 L 253.000 305.400 253.107 294.900 L 253.213 284.400 257.307 284.401 L 261.400 284.403 263.400 287.864 C 265.318 291.184,266.363 293.028,268.805 297.400 C 273.948 306.611,272.064 305.600,284.089 305.600 C 295.651 305.600,295.320 305.743,292.840 301.817 C 291.938 300.388,291.200 299.139,291.200 299.041 C 291.200 298.944,290.300 297.412,289.200 295.639 C 288.100 293.865,287.200 292.335,287.200 292.239 C 287.200 292.142,286.300 290.612,285.200 288.839 C 284.100 287.065,283.200 285.431,283.200 285.207 C 283.200 284.983,283.020 284.800,282.800 284.800 C 282.580 284.800,282.400 284.552,282.400 284.249 C 282.400 283.946,282.130 283.474,281.800 283.200 C 280.868 282.427,281.085 281.716,282.460 281.030 C 288.604 277.965,292.978 270.895,293.369 263.400 C 293.553 259.859,293.551 259.847,293.221 262.673 C 292.266 270.870,287.298 278.710,281.713 280.833 C 280.364 281.346,281.133 284.101,283.379 286.800 C 283.654 287.130,283.990 287.670,284.126 288.000 C 284.263 288.330,284.922 289.500,285.591 290.600 C 286.260 291.700,286.917 292.915,287.050 293.300 C 287.184 293.685,287.452 294.000,287.647 294.000 C 287.841 294.000,288.000 294.197,288.000 294.438 C 288.000 294.679,288.405 295.442,288.900 296.133 C 289.395 296.823,289.993 297.751,290.228 298.194 C 291.952 301.437,293.380 303.839,293.711 304.055 C 295.097 304.959,293.046 305.200,283.957 305.200 L 274.362 305.200 273.394 304.155 C 272.861 303.581,272.304 302.726,272.154 302.255 C 272.005 301.785,271.446 300.707,270.911 299.860 C 270.377 299.013,269.473 297.483,268.904 296.460 C 268.334 295.437,267.539 294.060,267.139 293.400 C 266.738 292.740,266.233 291.840,266.016 291.400 C 265.656 290.670,263.269 286.485,262.129 284.585 C 261.546 283.616,254.428 283.147,253.388 284.010 C 252.898 284.416,252.800 286.231,252.800 294.857 L 252.800 305.217 244.900 305.108 L 237.000 305.000 237.000 272.600 L 237.000 240.200 255.000 240.200 C 264.900 240.200,273.990 240.357,275.200 240.550 C 277.060 240.845,277.320 240.814,276.880 240.350 C 276.366 239.805,238.538 239.346,236.700 239.862 M224.967 240.243 C 225.514 240.453,225.600 241.538,225.600 248.243 L 225.600 256.000 208.280 256.000 C 188.358 256.000,190.000 255.618,190.000 260.247 C 190.000 265.289,188.560 264.800,203.410 264.800 C 210.519 264.800,216.619 264.909,216.967 265.043 C 217.658 265.308,217.938 279.248,217.274 280.295 C 217.037 280.668,213.673 280.815,203.580 280.895 L 190.200 281.000 190.200 285.000 L 190.200 289.000 207.800 289.200 L 225.400 289.400 225.509 297.090 L 225.617 304.780 224.709 305.001 C 224.209 305.122,212.640 305.171,199.000 305.110 L 174.200 305.000 174.097 273.000 C 174.040 255.400,174.079 240.775,174.184 240.500 C 174.385 239.973,223.614 239.723,224.967 240.243 M278.546 241.402 C 279.176 241.731,279.842 242.000,280.026 242.000 C 280.649 242.000,284.812 244.679,286.310 246.044 C 289.744 249.173,291.688 252.971,292.941 259.000 C 293.032 259.440,293.128 258.956,293.154 257.924 C 293.179 256.892,293.020 255.936,292.800 255.800 C 292.580 255.664,292.400 255.148,292.400 254.653 C 292.400 254.158,292.136 253.404,291.813 252.976 C 291.490 252.549,291.220 251.885,291.213 251.500 C 291.206 251.115,291.061 250.800,290.891 250.800 C 290.721 250.800,290.235 250.156,289.811 249.368 C 288.102 246.195,280.805 240.795,278.236 240.802 C 277.525 240.805,277.571 240.894,278.546 241.402 M252.975 256.520 C 252.865 256.806,252.826 259.461,252.888 262.420 L 253.000 267.800 262.301 267.907 C 270.916 268.007,271.718 267.956,273.161 267.220 C 277.590 264.960,277.564 259.028,273.116 256.757 C 271.224 255.792,253.336 255.581,252.975 256.520 M272.129 256.945 C 275.905 258.259,277.129 261.951,274.834 265.100 C 274.114 266.087,273.271 266.800,272.821 266.800 C 272.395 266.800,271.936 266.980,271.800 267.200 C 271.647 267.448,268.063 267.600,262.376 267.600 L 253.200 267.600 253.200 262.267 C 253.200 259.333,253.320 256.813,253.467 256.667 C 253.997 256.137,270.516 256.383,272.129 256.945 " stroke="none" fill="#a1e3ee" fill-rule="evenodd"></path>
  </g>
</svg>