<svg id="svg" version="1.1" xmlns="http://www.w3.org/2000/svg" xmlns:xlink="http://www.w3.org/1999/xlink" width="400" height="400" viewBox="0, 0, 400,400">
  <g id="svgg">
    <path id="path0" d="M125.850 155.650 C 125.452 157.640,125.578 221.210,125.992 227.400 C 126.498 234.958,128.157 239.092,132.485 243.572 C 136.379 247.602,145.471 252.000,149.912 252.000 C 150.594 252.000,151.247 252.153,151.363 252.340 C 151.969 253.321,169.369 253.104,174.000 252.058 C 178.195 251.110,180.500 250.423,182.125 249.636 C 183.075 249.176,184.066 248.800,184.326 248.800 C 184.587 248.800,184.800 248.620,184.800 248.400 C 184.800 248.180,185.040 248.000,185.334 248.000 C 186.828 248.000,193.216 242.557,194.746 239.980 C 198.216 234.139,198.000 237.236,198.000 193.386 L 198.000 154.400 186.000 154.400 L 174.000 154.400 174.000 189.376 C 174.000 212.263,173.862 224.438,173.600 224.600 C 173.380 224.736,173.200 225.204,173.200 225.640 C 173.200 227.972,170.082 231.572,167.200 232.567 C 165.258 233.237,158.601 233.449,158.232 232.852 C 158.114 232.660,157.518 232.400,156.908 232.273 C 155.159 231.909,152.950 229.786,151.725 227.292 L 150.600 225.000 150.490 189.700 L 150.379 154.400 138.240 154.400 L 126.100 154.400 125.850 155.650 M208.407 202.558 C 208.407 245.996,208.468 250.741,209.036 250.958 C 209.382 251.091,214.871 251.200,221.233 251.200 L 232.800 251.200 232.800 231.224 C 232.800 216.948,232.927 211.168,233.247 210.971 C 234.048 210.476,252.805 210.524,253.218 211.022 C 253.436 211.284,253.636 219.736,253.696 231.236 L 253.800 251.000 265.800 251.000 L 277.800 251.000 277.902 202.700 L 278.003 154.400 265.802 154.400 L 253.600 154.400 253.600 171.920 C 253.600 185.013,253.479 189.561,253.120 189.920 C 252.499 190.541,234.723 190.601,233.574 189.986 C 232.827 189.586,232.800 188.963,232.800 171.986 L 232.800 154.400 220.603 154.400 L 208.406 154.400 208.407 202.558 M288.400 202.806 L 288.400 251.212 299.700 251.106 L 311.000 251.000 310.965 226.488 C 310.944 212.403,311.080 202.027,311.284 202.095 C 311.479 202.160,312.277 203.830,313.058 205.806 C 313.839 207.783,314.774 210.120,315.135 211.000 C 315.497 211.880,318.833 218.630,322.548 226.000 C 326.263 233.370,329.737 240.300,330.267 241.400 C 330.797 242.500,331.587 244.030,332.024 244.800 C 332.460 245.570,333.373 247.328,334.053 248.706 L 335.289 251.211 347.944 251.106 L 360.600 251.000 360.702 202.694 L 360.803 154.388 349.302 154.494 L 337.800 154.600 337.842 179.500 C 337.870 195.784,337.747 204.400,337.486 204.400 C 336.973 204.400,336.029 203.158,336.013 202.460 C 336.006 202.164,335.712 201.264,335.359 200.460 C 335.007 199.657,334.538 198.550,334.317 198.000 C 333.180 195.168,330.270 189.242,327.047 183.200 C 326.049 181.330,324.832 178.945,324.342 177.900 C 323.851 176.855,323.304 176.000,323.125 176.000 C 322.946 176.000,322.800 175.676,322.800 175.280 C 322.800 174.884,322.642 174.389,322.449 174.180 C 321.880 173.565,318.744 167.737,313.689 157.900 L 311.890 154.400 300.145 154.400 L 288.400 154.400 288.400 202.806 " stroke="none" fill="#136db2" fill-rule="evenodd"></path>
    <path id="path1" d="M0.000 200.000 L 0.000 400.000 200.000 400.000 L 400.000 400.000 400.000 200.000 L 400.000 0.000 200.000 0.000 L 0.000 0.000 0.000 200.000 M80.600 154.372 C 81.040 154.547,82.480 154.969,83.800 155.309 C 88.474 156.511,91.739 157.979,96.376 160.963 C 98.447 162.296,103.084 165.896,103.271 166.317 C 103.342 166.476,104.157 167.198,105.081 167.922 C 107.243 169.613,108.595 172.234,108.248 174.061 C 107.334 178.876,107.124 178.346,112.342 184.406 C 116.131 188.805,116.348 191.127,113.087 192.367 C 111.184 193.091,110.585 194.521,111.349 196.521 C 112.146 198.609,112.179 199.846,111.446 200.127 C 111.040 200.283,110.947 200.834,111.100 202.187 C 111.272 203.715,111.156 204.195,110.426 204.972 C 109.591 205.862,109.567 206.067,109.966 208.939 C 110.722 214.371,109.588 215.421,101.430 216.846 C 96.776 217.659,91.824 219.087,89.108 220.399 C 88.196 220.839,87.295 221.200,87.106 221.200 C 86.916 221.200,85.777 221.830,84.573 222.600 C 82.131 224.162,81.176 224.319,80.179 223.322 C 79.349 222.492,80.956 220.800,82.573 220.800 C 83.084 220.800,83.726 220.530,84.000 220.200 C 84.274 219.870,84.836 219.600,85.249 219.600 C 85.662 219.600,86.000 219.420,86.000 219.200 C 86.000 218.980,86.360 218.800,86.800 218.800 C 87.240 218.800,87.600 218.644,87.600 218.453 C 87.600 218.262,88.344 217.614,89.254 217.012 C 91.468 215.547,95.463 211.338,96.291 209.600 C 96.657 208.830,97.192 208.056,97.478 207.880 C 97.765 207.704,98.000 207.297,98.000 206.975 C 98.000 206.653,98.165 206.077,98.366 205.695 C 99.197 204.120,100.000 202.040,100.000 201.463 C 100.000 201.124,100.180 200.736,100.400 200.600 C 100.620 200.464,100.800 199.812,100.800 199.150 C 100.800 198.489,101.007 197.560,101.260 197.087 C 101.845 195.995,102.037 186.864,101.531 184.200 C 101.322 183.100,101.052 181.613,100.931 180.896 C 100.811 180.179,100.551 179.494,100.356 179.373 C 100.160 179.252,100.000 178.848,99.999 178.476 C 99.998 177.700,97.748 173.291,96.940 172.483 C 96.150 171.692,96.219 172.715,97.073 174.426 C 99.323 178.937,100.303 191.100,98.843 196.400 C 98.571 197.390,98.080 199.190,97.752 200.400 C 97.425 201.610,96.999 202.960,96.806 203.400 C 96.612 203.840,96.154 204.920,95.786 205.800 C 94.575 208.703,94.277 209.189,93.329 209.810 C 92.325 210.468,91.600 209.541,91.600 207.598 C 91.600 207.185,91.420 206.736,91.200 206.600 C 90.980 206.464,90.795 205.778,90.788 205.076 C 90.776 203.758,89.002 200.297,87.132 197.944 C 82.605 192.248,80.903 184.671,82.390 176.845 C 82.916 174.081,82.922 167.323,82.400 167.000 C 82.180 166.864,82.000 166.438,82.000 166.053 C 82.000 165.668,80.580 163.776,78.844 161.849 C 75.749 158.412,74.357 155.731,74.915 154.278 C 75.142 153.685,79.041 153.750,80.600 154.372 M151.219 188.800 C 151.438 223.896,151.596 227.600,152.867 227.600 C 153.050 227.600,153.200 227.782,153.200 228.003 C 153.200 228.630,155.269 230.800,155.866 230.800 C 156.160 230.800,156.400 230.980,156.400 231.200 C 156.400 231.420,156.715 231.601,157.100 231.602 C 157.485 231.604,158.316 231.874,158.946 232.202 C 161.750 233.665,167.808 232.283,170.329 229.606 C 172.930 226.845,172.800 228.946,172.800 189.665 C 172.800 157.590,172.862 154.062,173.433 153.843 C 174.384 153.478,198.122 153.563,198.706 153.933 C 199.357 154.346,199.202 231.244,198.545 233.800 C 197.014 239.759,191.880 245.662,185.202 249.138 C 182.659 250.462,177.259 252.400,176.112 252.400 C 175.582 252.400,174.844 252.561,174.474 252.758 C 170.483 254.877,151.527 254.115,144.200 251.541 C 138.405 249.505,136.001 248.047,132.300 244.325 C 130.375 242.389,128.800 240.607,128.800 240.365 C 128.800 240.122,128.395 239.357,127.900 238.664 C 126.746 237.049,126.064 235.201,125.515 232.200 C 125.074 229.788,124.564 155.191,124.982 154.104 C 125.138 153.696,127.854 153.611,138.090 153.694 L 151.000 153.800 151.219 188.800 M233.367 153.843 C 233.931 154.059,234.000 156.020,234.000 171.843 L 234.000 189.600 243.396 189.600 L 252.792 189.600 252.896 171.700 L 253.000 153.800 265.352 153.694 C 273.971 153.620,277.866 153.723,278.240 154.033 C 279.053 154.708,279.071 251.277,278.258 251.952 C 277.861 252.282,274.208 252.382,265.352 252.306 L 253.000 252.200 252.896 231.693 L 252.793 211.185 243.496 211.293 L 234.200 211.400 234.000 231.515 C 233.828 248.811,233.716 251.683,233.200 252.009 C 232.071 252.722,208.960 252.502,208.229 251.771 C 207.399 250.941,207.252 154.908,208.080 154.080 C 208.588 153.572,232.087 153.352,233.367 153.843 M312.671 154.529 C 313.072 155.039,314.120 156.884,315.000 158.629 C 315.880 160.373,316.690 161.890,316.800 162.000 C 316.910 162.110,317.920 164.000,319.044 166.200 C 320.169 168.400,321.815 171.550,322.701 173.200 C 323.588 174.850,324.828 177.190,325.457 178.400 C 326.086 179.610,326.695 180.690,326.811 180.800 C 326.927 180.910,327.372 181.810,327.800 182.800 C 328.228 183.790,328.682 184.690,328.810 184.800 C 329.101 185.051,334.093 195.246,334.980 197.400 C 335.342 198.280,335.810 199.313,336.019 199.695 C 336.229 200.077,336.443 200.707,336.495 201.095 C 336.548 201.483,336.683 191.000,336.795 177.800 L 337.000 153.800 349.000 153.800 L 361.000 153.800 361.000 203.000 L 361.000 252.200 348.368 252.306 C 336.777 252.402,335.669 252.353,334.938 251.706 C 334.078 250.944,332.800 248.593,332.800 247.772 C 332.800 247.494,332.656 247.207,332.480 247.133 C 332.304 247.060,331.089 244.840,329.780 242.200 C 328.471 239.560,327.265 237.340,327.100 237.267 C 326.935 237.193,326.800 236.875,326.800 236.559 C 326.800 236.243,326.350 235.271,325.800 234.400 C 325.250 233.529,324.800 232.629,324.800 232.400 C 324.800 232.171,324.350 231.271,323.800 230.400 C 323.250 229.529,322.800 228.553,322.800 228.232 C 322.800 227.910,322.645 227.551,322.455 227.434 C 322.078 227.201,318.800 220.706,318.800 220.192 C 318.800 220.018,318.350 219.286,317.800 218.564 C 317.250 217.843,316.800 217.059,316.800 216.821 C 316.800 216.584,316.632 216.077,316.426 215.695 C 315.557 214.083,314.800 212.240,314.800 211.739 C 314.800 211.442,314.634 211.200,314.432 211.200 C 314.229 211.200,313.945 210.662,313.801 210.005 C 313.657 209.347,313.372 208.706,313.169 208.581 C 312.966 208.455,312.800 208.008,312.800 207.586 C 312.800 207.164,312.423 206.230,311.963 205.510 L 311.126 204.200 311.391 206.000 C 312.209 211.559,312.386 216.329,312.393 232.871 C 312.399 248.955,312.325 251.218,311.771 251.771 C 311.081 252.462,289.149 252.737,288.096 252.068 C 287.571 251.734,287.289 154.827,287.811 153.982 C 287.953 153.753,292.836 153.600,299.995 153.600 L 311.942 153.600 312.671 154.529 M59.244 165.503 C 60.449 166.308,62.769 168.649,63.743 170.042 C 65.961 173.218,76.114 182.000,77.567 182.000 C 78.563 182.000,80.311 184.283,80.113 185.323 C 79.830 186.802,79.238 186.683,76.746 184.645 C 70.146 179.248,59.384 176.836,50.906 178.853 C 44.326 180.419,32.000 187.892,32.000 190.315 C 32.000 190.484,31.454 191.219,30.787 191.950 C 29.743 193.093,27.600 196.749,27.600 197.387 C 27.600 197.504,27.870 197.600,28.200 197.600 C 28.530 197.600,28.800 197.282,28.800 196.893 C 28.800 196.059,31.999 192.144,34.000 190.530 C 34.770 189.908,35.460 189.265,35.533 189.100 C 35.607 188.935,35.907 188.800,36.200 188.800 C 36.493 188.800,36.793 188.659,36.867 188.487 C 37.015 188.139,41.637 185.241,43.200 184.517 C 48.487 182.068,52.058 181.146,57.158 180.913 C 62.947 180.650,63.911 181.139,61.533 183.136 C 59.267 185.039,56.400 188.021,56.400 188.476 C 56.400 188.901,55.529 190.863,53.262 195.546 C 51.137 199.935,44.681 205.276,40.389 206.195 C 39.625 206.358,38.820 206.626,38.600 206.790 C 38.380 206.954,37.300 207.411,36.200 207.807 C 32.418 209.166,28.896 213.259,28.005 217.330 C 26.881 222.469,23.489 226.227,22.435 223.500 C 22.244 223.005,21.776 221.790,21.396 220.800 C 21.015 219.810,20.555 218.640,20.372 218.200 C 18.545 213.801,18.585 195.360,20.429 191.905 C 20.633 191.523,20.805 190.803,20.811 190.305 C 20.826 189.008,24.956 184.800,26.213 184.800 C 27.138 184.800,30.247 180.828,32.026 177.376 C 34.877 171.843,36.445 170.773,39.189 172.486 C 39.869 172.911,40.132 172.784,41.283 171.477 C 42.165 170.477,43.010 169.939,43.841 169.851 C 44.523 169.778,45.483 169.317,45.974 168.826 C 46.739 168.061,47.134 167.971,48.747 168.193 C 50.461 168.428,50.738 168.345,51.876 167.258 C 54.457 164.792,57.201 164.138,59.244 165.503 M49.101 204.861 C 49.429 205.189,49.442 205.547,49.147 206.099 C 48.485 207.337,48.246 213.975,48.754 217.024 C 49.900 223.898,55.023 232.243,60.907 236.821 C 62.058 237.716,63.297 238.691,63.661 238.987 C 64.025 239.283,65.015 239.827,65.861 240.196 C 67.764 241.026,68.119 241.205,70.556 242.559 C 71.959 243.339,73.485 243.757,75.956 244.038 C 77.850 244.254,80.180 244.533,81.133 244.658 C 82.100 244.785,83.690 244.652,84.733 244.356 L 86.600 243.826 85.000 243.536 C 84.120 243.377,82.215 243.236,80.767 243.223 C 79.318 243.210,78.017 243.084,77.875 242.941 C 77.491 242.558,73.510 241.228,72.700 241.213 C 72.315 241.206,72.000 241.020,72.000 240.800 C 72.000 240.580,71.704 240.400,71.343 240.400 C 70.515 240.400,63.761 236.162,63.096 235.225 C 62.823 234.841,62.208 234.319,61.728 234.064 C 60.516 233.421,54.926 226.757,53.761 224.565 C 52.212 221.652,52.621 220.669,54.888 221.851 C 57.735 223.335,60.862 223.586,69.078 222.989 C 71.903 222.784,73.386 222.879,75.478 223.398 C 77.884 223.996,79.190 224.543,83.218 226.645 C 83.777 226.937,84.602 227.587,85.050 228.088 C 90.630 234.330,97.677 236.245,103.695 233.157 C 105.698 232.128,110.000 233.417,110.000 235.045 C 110.000 236.094,102.645 243.709,99.920 245.480 C 98.974 246.095,97.972 246.814,97.693 247.078 C 97.413 247.342,95.713 248.295,93.914 249.195 C 92.115 250.095,90.438 251.002,90.187 251.211 C 89.560 251.731,86.778 252.709,83.200 253.667 C 78.159 255.017,75.480 254.662,69.968 251.915 C 64.408 249.143,63.400 248.943,59.263 249.787 C 55.158 250.624,53.621 250.039,53.606 247.631 C 53.599 246.494,52.549 245.200,51.633 245.200 C 50.757 245.200,46.803 242.499,46.787 241.889 C 46.763 241.016,45.334 239.648,44.153 239.369 C 41.380 238.714,39.827 235.170,41.141 232.495 C 43.660 227.366,44.780 222.461,45.775 212.200 C 46.490 204.828,47.294 203.054,49.101 204.861 " stroke="none" fill="#fbfbfb" fill-rule="evenodd"></path>
    <path id="path2" d="M75.816 155.720 C 76.199 157.531,77.245 159.081,79.733 161.519 C 80.923 162.685,82.211 164.395,82.596 165.319 C 82.981 166.244,83.468 167.374,83.679 167.832 C 84.153 168.860,83.878 174.098,83.074 179.354 C 81.968 186.591,83.344 191.456,88.384 198.132 C 90.442 200.858,91.930 204.261,92.248 206.973 C 92.547 209.512,93.193 209.263,94.778 206.000 C 101.450 192.263,99.474 175.364,89.959 164.795 C 86.294 160.723,88.372 161.284,92.469 165.472 C 103.800 177.055,105.886 191.324,98.601 207.400 C 96.910 211.131,92.044 216.582,88.700 218.491 C 87.189 219.353,86.766 220.000,87.711 220.000 C 87.992 220.000,88.577 219.762,89.011 219.470 C 90.516 218.460,98.328 216.273,102.000 215.834 C 108.377 215.071,109.396 214.025,108.994 208.650 C 108.730 205.138,108.766 204.847,109.505 204.451 C 110.384 203.981,110.931 202.528,110.362 202.177 C 109.800 201.829,109.934 200.473,110.637 199.400 C 111.219 198.512,111.219 198.320,110.637 197.153 C 109.504 194.882,110.700 191.600,112.660 191.600 C 113.273 191.600,114.400 190.236,114.400 189.493 C 114.400 189.139,113.275 187.382,111.900 185.590 C 106.471 178.511,106.132 177.705,107.265 174.570 C 108.758 170.442,95.780 159.803,85.400 156.646 C 81.091 155.335,78.385 154.682,78.167 154.899 C 78.042 155.024,77.401 154.972,76.743 154.784 C 75.559 154.444,75.548 154.455,75.816 155.720 M53.000 167.600 C 51.299 169.072,50.965 169.200,48.819 169.200 C 46.640 169.200,46.470 169.269,46.225 170.241 C 45.991 171.176,45.827 171.257,44.618 171.030 C 43.429 170.807,43.107 170.952,41.863 172.271 L 40.453 173.765 38.504 173.265 C 35.519 172.500,35.559 172.463,32.116 179.320 C 30.570 182.400,30.040 183.062,27.874 184.624 C 21.778 189.021,21.573 189.306,20.552 194.834 C 18.916 203.690,19.863 215.116,22.861 222.700 C 23.829 225.147,25.406 223.041,27.430 216.600 C 29.372 210.421,32.412 207.753,40.200 205.397 C 46.190 203.585,50.272 199.536,54.076 191.636 C 55.852 187.947,57.023 186.088,58.633 184.400 C 61.343 181.559,61.350 181.599,58.100 181.607 C 45.650 181.639,32.106 190.439,26.712 202.000 C 25.453 204.701,24.800 206.325,24.800 206.760 C 24.800 207.002,24.620 207.200,24.400 207.200 C 24.180 207.200,24.000 207.639,24.000 208.176 C 24.000 208.713,23.797 209.278,23.550 209.431 C 23.236 209.625,23.165 209.300,23.316 208.355 C 23.435 207.610,23.651 206.190,23.797 205.200 C 24.049 203.481,24.222 202.943,25.399 200.200 C 25.683 199.540,26.150 198.370,26.438 197.600 C 28.005 193.408,33.542 186.642,37.440 184.158 C 38.078 183.751,38.690 183.324,38.800 183.209 C 39.729 182.237,45.429 179.596,48.213 178.849 C 55.502 176.891,62.911 176.895,68.077 178.860 C 69.245 179.304,70.560 179.772,71.000 179.899 C 71.440 180.026,71.912 180.298,72.048 180.504 C 72.184 180.710,72.602 180.816,72.976 180.739 C 73.464 180.639,73.058 180.151,71.528 179.000 C 69.067 177.149,67.039 175.101,63.156 170.540 C 58.652 165.249,56.452 164.612,53.000 167.600 M77.588 184.188 C 78.356 185.005,79.200 185.224,79.200 184.605 C 79.200 184.191,77.861 183.200,77.302 183.200 C 76.791 183.200,76.849 183.401,77.588 184.188 M47.240 208.300 C 47.270 210.055,47.356 210.363,47.600 209.600 C 48.065 208.148,48.065 206.000,47.600 206.000 C 47.375 206.000,47.217 207.007,47.240 208.300 M46.900 213.895 C 46.614 213.993,46.400 214.738,46.400 215.632 C 46.400 217.876,44.672 225.683,43.397 229.200 C 40.998 235.814,41.589 238.800,45.297 238.800 C 45.765 238.800,47.024 240.248,47.818 241.700 C 48.150 242.305,48.664 242.800,48.961 242.800 C 49.259 242.800,49.726 243.070,50.000 243.400 C 50.274 243.730,50.886 244.000,51.360 244.000 C 52.826 244.000,53.978 245.122,54.249 246.814 C 54.628 249.187,54.958 249.311,59.563 248.804 C 64.630 248.246,65.702 248.457,69.510 250.763 C 72.267 252.432,73.535 252.880,78.200 253.831 C 80.933 254.388,95.443 248.242,99.045 245.001 C 99.290 244.780,100.256 243.970,101.192 243.200 C 105.155 239.939,108.897 235.802,108.721 234.876 C 108.544 233.942,105.378 233.776,102.680 234.558 C 96.622 236.317,91.831 235.245,87.036 231.058 C 79.833 224.767,76.978 223.783,66.978 224.143 C 59.713 224.405,56.510 224.025,54.900 222.710 C 53.993 221.970,54.349 223.690,55.507 225.648 C 57.335 228.738,65.326 236.793,66.569 236.798 C 66.771 236.799,67.221 237.052,67.569 237.359 C 69.139 238.750,74.274 241.045,78.200 242.110 C 81.273 242.943,94.359 242.524,95.380 241.559 C 95.844 241.121,96.800 241.085,96.800 241.505 C 96.800 241.673,96.470 241.988,96.067 242.205 C 84.097 248.658,66.245 245.069,57.000 234.352 C 53.235 229.987,51.900 228.058,50.390 224.800 C 48.719 221.193,48.225 219.561,47.716 215.962 C 47.502 214.445,47.239 213.779,46.900 213.895 M82.000 221.911 C 80.795 222.466,80.719 222.577,81.454 222.700 C 81.924 222.779,82.914 222.475,83.654 222.023 C 85.324 221.005,84.138 220.925,82.000 221.911 " stroke="none" fill="#c9b980" fill-rule="evenodd"></path>
    <path id="path3" d="M125.558 154.095 C 124.553 154.465,124.565 226.381,125.572 231.792 C 128.181 245.818,144.037 255.062,163.408 253.851 C 170.067 253.434,176.881 252.450,179.000 251.599 C 186.747 248.487,189.066 247.069,192.893 243.100 C 195.664 240.226,197.303 237.383,198.252 233.800 C 198.798 231.738,199.162 154.628,198.628 154.094 C 198.345 153.812,173.990 153.959,173.526 154.246 C 173.347 154.357,173.200 169.950,173.200 188.897 C 173.200 227.955,173.299 226.590,170.228 229.750 C 167.860 232.186,160.035 234.074,159.032 232.452 C 158.914 232.260,158.268 231.994,157.597 231.859 C 156.058 231.552,152.518 228.067,152.189 226.536 C 152.055 225.911,151.777 224.987,151.572 224.481 C 151.353 223.939,151.200 209.392,151.200 188.969 C 151.200 158.024,151.134 154.350,150.577 154.136 C 149.665 153.786,126.500 153.748,125.558 154.095 M208.898 153.928 L 207.997 154.056 208.098 202.928 L 208.200 251.800 220.574 251.906 C 227.380 251.964,233.092 251.868,233.268 251.692 C 233.443 251.517,233.599 243.459,233.615 233.787 C 233.630 224.114,233.744 215.075,233.868 213.700 L 234.093 211.200 243.447 211.200 L 252.800 211.200 252.806 231.100 C 252.809 242.045,252.957 251.228,253.133 251.506 C 253.383 251.900,256.195 251.988,265.827 251.906 L 278.200 251.800 278.302 202.953 L 278.403 154.106 276.902 153.939 C 276.076 153.847,270.360 153.868,264.200 153.986 L 253.000 154.200 252.896 171.900 L 252.792 189.600 243.423 189.600 C 234.844 189.600,234.037 189.541,233.851 188.900 C 233.740 188.515,233.647 180.574,233.644 171.254 C 233.642 161.933,233.540 154.207,233.418 154.085 C 233.185 153.852,210.459 153.706,208.898 153.928 M288.379 154.087 C 287.602 154.374,287.094 248.270,287.854 251.106 L 288.096 252.012 299.948 251.906 L 311.800 251.800 311.925 232.400 C 312.009 219.418,311.895 211.636,311.583 208.876 C 311.063 204.287,311.206 203.598,312.209 205.868 C 312.582 206.710,313.127 207.940,313.421 208.600 C 313.715 209.260,314.370 210.785,314.878 211.988 C 315.708 213.956,321.361 225.274,330.929 244.124 C 332.806 247.822,334.559 251.110,334.825 251.430 C 335.232 251.920,337.315 251.994,348.154 251.905 L 361.000 251.800 361.102 202.956 L 361.203 154.112 359.302 153.925 C 356.447 153.646,337.700 153.891,337.175 154.215 C 336.842 154.422,336.743 160.707,336.806 177.748 C 336.853 190.537,336.865 201.180,336.833 201.400 C 336.801 201.620,336.121 200.270,335.322 198.400 C 333.939 195.164,326.277 179.843,325.620 179.000 C 325.449 178.780,323.951 175.990,322.292 172.800 C 320.634 169.610,318.788 166.100,318.192 165.000 C 317.595 163.900,316.032 160.975,314.718 158.500 C 312.357 154.053,312.312 153.999,310.865 153.956 C 304.480 153.767,289.004 153.857,288.379 154.087 M150.490 189.700 L 150.600 225.000 151.725 227.292 C 152.950 229.786,155.159 231.909,156.908 232.273 C 157.518 232.400,158.114 232.660,158.232 232.852 C 158.601 233.449,165.258 233.237,167.200 232.567 C 170.082 231.572,173.200 227.972,173.200 225.640 C 173.200 225.204,173.380 224.736,173.600 224.600 C 173.862 224.438,174.000 212.263,174.000 189.376 L 174.000 154.400 186.000 154.400 L 198.000 154.400 198.000 193.386 C 198.000 237.236,198.216 234.139,194.746 239.980 C 193.216 242.557,186.828 248.000,185.334 248.000 C 185.040 248.000,184.800 248.180,184.800 248.400 C 184.800 248.620,184.587 248.800,184.326 248.800 C 184.066 248.800,183.075 249.176,182.125 249.636 C 180.500 250.423,178.195 251.110,174.000 252.058 C 169.369 253.104,151.969 253.321,151.363 252.340 C 151.247 252.153,150.594 252.000,149.912 252.000 C 145.471 252.000,136.379 247.602,132.485 243.572 C 128.157 239.092,126.498 234.958,125.992 227.400 C 125.578 221.210,125.452 157.640,125.850 155.650 L 126.100 154.400 138.240 154.400 L 150.379 154.400 150.490 189.700 M232.800 171.986 C 232.800 188.963,232.827 189.586,233.574 189.986 C 234.723 190.601,252.499 190.541,253.120 189.920 C 253.479 189.561,253.600 185.013,253.600 171.920 L 253.600 154.400 265.802 154.400 L 278.003 154.400 277.902 202.700 L 277.800 251.000 265.800 251.000 L 253.800 251.000 253.696 231.236 C 253.636 219.736,253.436 211.284,253.218 211.022 C 252.805 210.524,234.048 210.476,233.247 210.971 C 232.927 211.168,232.800 216.948,232.800 231.224 L 232.800 251.200 221.233 251.200 C 214.871 251.200,209.382 251.091,209.036 250.958 C 208.468 250.741,208.407 245.996,208.407 202.558 L 208.406 154.400 220.603 154.400 L 232.800 154.400 232.800 171.986 M313.689 157.900 C 318.744 167.737,321.880 173.565,322.449 174.180 C 322.642 174.389,322.800 174.884,322.800 175.280 C 322.800 175.676,322.946 176.000,323.125 176.000 C 323.304 176.000,323.851 176.855,324.342 177.900 C 324.832 178.945,326.049 181.330,327.047 183.200 C 330.270 189.242,333.180 195.168,334.317 198.000 C 334.538 198.550,335.007 199.657,335.359 200.460 C 335.712 201.264,336.006 202.164,336.013 202.460 C 336.029 203.158,336.973 204.400,337.486 204.400 C 337.747 204.400,337.870 195.784,337.842 179.500 L 337.800 154.600 349.302 154.494 L 360.803 154.388 360.702 202.694 L 360.600 251.000 347.944 251.106 L 335.289 251.211 334.053 248.706 C 333.373 247.328,332.460 245.570,332.024 244.800 C 331.587 244.030,330.797 242.500,330.267 241.400 C 329.737 240.300,326.263 233.370,322.548 226.000 C 318.833 218.630,315.497 211.880,315.135 211.000 C 314.774 210.120,313.839 207.783,313.058 205.806 C 312.277 203.830,311.479 202.160,311.284 202.095 C 311.080 202.027,310.944 212.403,310.965 226.488 L 311.000 251.000 299.700 251.106 L 288.400 251.212 288.400 202.806 L 288.400 154.400 300.145 154.400 L 311.890 154.400 313.689 157.900 " stroke="none" fill="#68a4d0" fill-rule="evenodd"></path>
    <path id="path4" d="M74.915 154.278 C 74.357 155.731,75.749 158.412,78.844 161.849 C 80.580 163.776,82.000 165.668,82.000 166.053 C 82.000 166.438,82.180 166.864,82.400 167.000 C 82.922 167.323,82.916 174.081,82.390 176.845 C 80.903 184.671,82.605 192.248,87.132 197.944 C 89.002 200.297,90.776 203.758,90.788 205.076 C 90.795 205.778,90.980 206.464,91.200 206.600 C 91.420 206.736,91.600 207.185,91.600 207.598 C 91.600 209.541,92.325 210.468,93.329 209.810 C 94.277 209.189,94.575 208.703,95.786 205.800 C 96.154 204.920,96.612 203.840,96.806 203.400 C 96.999 202.960,97.425 201.610,97.752 200.400 C 98.080 199.190,98.571 197.390,98.843 196.400 C 100.303 191.100,99.323 178.937,97.073 174.426 C 96.219 172.715,96.150 171.692,96.940 172.483 C 97.748 173.291,99.998 177.700,99.999 178.476 C 100.000 178.848,100.160 179.252,100.356 179.373 C 100.551 179.494,100.811 180.179,100.931 180.896 C 101.052 181.613,101.322 183.100,101.531 184.200 C 102.037 186.864,101.845 195.995,101.260 197.087 C 101.007 197.560,100.800 198.489,100.800 199.150 C 100.800 199.812,100.620 200.464,100.400 200.600 C 100.180 200.736,100.000 201.124,100.000 201.463 C 100.000 202.040,99.197 204.120,98.366 205.695 C 98.165 206.077,98.000 206.653,98.000 206.975 C 98.000 207.297,97.765 207.704,97.478 207.880 C 97.192 208.056,96.657 208.830,96.291 209.600 C 95.463 211.338,91.468 215.547,89.254 217.012 C 88.344 217.614,87.600 218.262,87.600 218.453 C 87.600 218.644,87.240 218.800,86.800 218.800 C 86.360 218.800,86.000 218.980,86.000 219.200 C 86.000 219.420,85.662 219.600,85.249 219.600 C 84.836 219.600,84.274 219.870,84.000 220.200 C 83.726 220.530,83.084 220.800,82.573 220.800 C 80.956 220.800,79.349 222.492,80.179 223.322 C 81.176 224.319,82.131 224.162,84.573 222.600 C 85.777 221.830,86.916 221.200,87.106 221.200 C 87.295 221.200,88.196 220.839,89.108 220.399 C 91.824 219.087,96.776 217.659,101.430 216.846 C 109.588 215.421,110.722 214.371,109.966 208.939 C 109.567 206.067,109.591 205.862,110.426 204.972 C 111.156 204.195,111.272 203.715,111.100 202.187 C 110.947 200.834,111.040 200.283,111.446 200.127 C 112.179 199.846,112.146 198.609,111.349 196.521 C 110.585 194.521,111.184 193.091,113.087 192.367 C 116.348 191.127,116.131 188.805,112.342 184.406 C 107.124 178.346,107.334 178.876,108.248 174.061 C 108.595 172.234,107.243 169.613,105.081 167.922 C 104.157 167.198,103.342 166.476,103.271 166.317 C 103.084 165.896,98.447 162.296,96.376 160.963 C 91.739 157.979,88.474 156.511,83.800 155.309 C 82.480 154.969,81.040 154.547,80.600 154.372 C 79.041 153.750,75.142 153.685,74.915 154.278 M131.323 153.899 C 133.920 153.969,138.060 153.968,140.523 153.898 C 142.985 153.828,140.860 153.771,135.800 153.772 C 130.740 153.772,128.725 153.829,131.323 153.899 M147.600 153.823 C 149.086 154.147,151.126 154.203,150.948 153.916 C 150.841 153.742,149.908 153.621,148.876 153.646 C 147.844 153.672,147.270 153.752,147.600 153.823 M173.300 153.865 C 172.904 154.025,172.820 161.382,172.897 189.133 L 172.993 224.200 173.197 189.200 L 173.400 154.200 183.200 153.989 L 193.000 153.779 183.400 153.721 C 178.120 153.689,173.575 153.754,173.300 153.865 M196.305 153.883 C 196.802 153.979,197.522 153.975,197.905 153.875 C 198.287 153.775,197.880 153.696,197.000 153.701 C 196.120 153.705,195.807 153.787,196.305 153.883 M216.100 153.887 C 216.705 153.978,217.695 153.978,218.300 153.887 C 218.905 153.795,218.410 153.720,217.200 153.720 C 215.990 153.720,215.495 153.795,216.100 153.887 M224.700 153.889 C 225.415 153.978,226.585 153.978,227.300 153.889 C 228.015 153.801,227.430 153.728,226.000 153.728 C 224.570 153.728,223.985 153.801,224.700 153.889 M231.300 153.876 C 231.685 153.976,232.315 153.976,232.700 153.876 C 233.085 153.775,232.770 153.693,232.000 153.693 C 231.230 153.693,230.915 153.775,231.300 153.876 M253.061 153.900 C 252.959 154.065,255.873 154.154,259.537 154.097 C 272.132 153.902,273.381 153.766,263.324 153.683 C 257.782 153.637,253.163 153.735,253.061 153.900 M291.907 153.890 C 292.626 153.979,293.706 153.977,294.307 153.886 C 294.908 153.795,294.320 153.722,293.000 153.724 C 291.680 153.726,291.188 153.801,291.907 153.890 M298.517 153.897 C 300.011 153.974,302.351 153.974,303.717 153.896 C 305.082 153.818,303.860 153.755,301.000 153.755 C 298.140 153.756,297.022 153.820,298.517 153.897 M310.100 153.876 C 310.485 153.976,311.115 153.976,311.500 153.876 C 311.885 153.775,311.570 153.693,310.800 153.693 C 310.030 153.693,309.715 153.775,310.100 153.876 M337.052 153.916 C 336.944 154.090,337.518 154.170,338.328 154.093 C 340.802 153.859,341.093 153.695,339.124 153.646 C 338.092 153.621,337.159 153.742,337.052 153.916 M347.100 153.896 C 348.475 153.974,350.725 153.974,352.100 153.896 C 353.475 153.818,352.350 153.754,349.600 153.754 C 346.850 153.754,345.725 153.818,347.100 153.896 M358.900 153.876 C 359.285 153.976,359.915 153.976,360.300 153.876 C 360.685 153.775,360.370 153.693,359.600 153.693 C 358.830 153.693,358.515 153.775,358.900 153.876 M78.167 154.899 C 78.385 154.682,81.091 155.335,85.400 156.646 C 90.449 158.181,96.927 161.972,101.992 166.356 C 106.837 170.549,108.041 172.425,107.265 174.570 C 106.132 177.705,106.471 178.511,111.900 185.590 C 113.275 187.382,114.400 189.139,114.400 189.493 C 114.400 190.236,113.273 191.600,112.660 191.600 C 110.700 191.600,109.504 194.882,110.637 197.153 C 111.219 198.320,111.219 198.512,110.637 199.400 C 109.934 200.473,109.800 201.829,110.362 202.177 C 110.931 202.528,110.384 203.981,109.505 204.451 C 108.766 204.847,108.730 205.138,108.994 208.650 C 109.396 214.025,108.377 215.071,102.000 215.834 C 98.328 216.273,90.516 218.460,89.011 219.470 C 88.577 219.762,87.992 220.000,87.711 220.000 C 86.766 220.000,87.189 219.353,88.700 218.491 C 92.044 216.582,96.910 211.131,98.601 207.400 C 105.886 191.324,103.800 177.055,92.469 165.472 C 88.372 161.284,86.294 160.723,89.959 164.795 C 99.474 175.364,101.450 192.263,94.778 206.000 C 93.193 209.263,92.547 209.512,92.248 206.973 C 91.930 204.261,90.442 200.858,88.384 198.132 C 83.344 191.456,81.968 186.591,83.074 179.354 C 83.878 174.098,84.153 168.860,83.679 167.832 C 83.468 167.374,82.981 166.244,82.596 165.319 C 82.211 164.395,80.923 162.685,79.733 161.519 C 76.017 157.877,74.337 154.094,76.743 154.784 C 77.401 154.972,78.042 155.024,78.167 154.899 M207.794 202.800 C 207.794 229.530,207.842 240.465,207.900 227.100 C 207.958 213.735,207.958 191.865,207.900 178.500 C 207.842 165.135,207.794 176.070,207.794 202.800 M233.714 156.600 C 233.717 157.700,233.795 158.103,233.887 157.495 C 233.979 156.886,233.977 155.986,233.882 155.495 C 233.787 155.003,233.711 155.500,233.714 156.600 M278.399 204.400 L 278.200 251.800 265.827 251.906 C 256.210 251.988,253.375 251.899,253.097 251.506 C 252.828 251.126,252.780 251.150,252.903 251.600 C 253.138 252.462,277.641 252.715,278.348 251.863 C 278.684 251.458,278.776 238.959,278.701 204.157 L 278.598 157.000 278.399 204.400 M198.991 191.400 C 198.991 209.660,199.040 217.188,199.100 208.130 C 199.160 199.071,199.160 184.131,199.100 174.930 C 199.040 165.728,198.991 173.140,198.991 191.400 M233.777 171.400 C 233.777 178.000,233.832 180.756,233.899 177.525 C 233.966 174.293,233.966 168.893,233.899 165.525 C 233.832 162.156,233.777 164.800,233.777 171.400 M54.262 165.449 C 53.637 165.788,52.563 166.602,51.876 167.258 C 50.738 168.345,50.461 168.428,48.747 168.193 C 47.134 167.971,46.739 168.061,45.974 168.826 C 45.483 169.317,44.523 169.778,43.841 169.851 C 43.010 169.939,42.165 170.477,41.283 171.477 C 40.132 172.784,39.869 172.911,39.189 172.486 C 36.445 170.773,34.877 171.843,32.026 177.376 C 30.247 180.828,27.138 184.800,26.213 184.800 C 24.956 184.800,20.826 189.008,20.811 190.305 C 20.805 190.803,20.633 191.523,20.429 191.905 C 18.585 195.360,18.545 213.801,20.372 218.200 C 20.555 218.640,21.015 219.810,21.396 220.800 C 21.776 221.790,22.244 223.005,22.435 223.500 C 23.489 226.227,26.881 222.469,28.005 217.330 C 28.896 213.259,32.418 209.166,36.200 207.807 C 37.300 207.411,38.380 206.954,38.600 206.790 C 38.820 206.626,39.625 206.358,40.389 206.195 C 44.681 205.276,51.137 199.935,53.262 195.546 C 55.529 190.863,56.400 188.901,56.400 188.476 C 56.400 188.021,59.267 185.039,61.533 183.136 C 63.911 181.139,62.947 180.650,57.158 180.913 C 52.058 181.146,48.487 182.068,43.200 184.517 C 41.637 185.241,37.015 188.139,36.867 188.487 C 36.793 188.659,36.493 188.800,36.200 188.800 C 35.907 188.800,35.607 188.935,35.533 189.100 C 35.460 189.265,34.770 189.908,34.000 190.530 C 31.999 192.144,28.800 196.059,28.800 196.893 C 28.800 197.282,28.530 197.600,28.200 197.600 C 27.870 197.600,27.600 197.504,27.600 197.387 C 27.600 196.749,29.743 193.093,30.787 191.950 C 31.454 191.219,32.000 190.484,32.000 190.315 C 32.000 188.373,40.960 182.458,48.200 179.620 C 56.503 176.367,69.398 178.637,76.746 184.645 C 79.238 186.683,79.830 186.802,80.113 185.323 C 80.311 184.283,78.563 182.000,77.567 182.000 C 76.114 182.000,65.961 173.218,63.743 170.042 C 60.575 165.508,57.185 163.865,54.262 165.449 M59.404 166.640 C 59.941 166.991,61.630 168.746,63.156 170.540 C 67.039 175.101,69.067 177.149,71.528 179.000 C 73.058 180.151,73.464 180.639,72.976 180.739 C 72.602 180.816,72.184 180.710,72.048 180.504 C 71.912 180.298,71.440 180.026,71.000 179.899 C 70.560 179.772,69.245 179.304,68.077 178.860 C 62.911 176.895,55.502 176.891,48.213 178.849 C 45.429 179.596,39.729 182.237,38.800 183.209 C 38.690 183.324,38.078 183.751,37.440 184.158 C 33.542 186.642,28.005 193.408,26.438 197.600 C 26.150 198.370,25.683 199.540,25.399 200.200 C 24.222 202.943,24.049 203.481,23.797 205.200 C 23.651 206.190,23.435 207.610,23.316 208.355 C 23.165 209.300,23.236 209.625,23.550 209.431 C 23.797 209.278,24.000 208.713,24.000 208.176 C 24.000 207.639,24.180 207.200,24.400 207.200 C 24.620 207.200,24.800 207.002,24.800 206.760 C 24.800 206.325,25.453 204.701,26.712 202.000 C 32.106 190.439,45.650 181.639,58.100 181.607 C 61.350 181.599,61.343 181.559,58.633 184.400 C 57.023 186.088,55.852 187.947,54.076 191.636 C 50.272 199.536,46.190 203.585,40.200 205.397 C 32.412 207.753,29.372 210.421,27.430 216.600 C 25.406 223.041,23.829 225.147,22.861 222.700 C 19.863 215.116,18.916 203.690,20.552 194.834 C 21.573 189.306,21.778 189.021,27.874 184.624 C 30.040 183.062,30.570 182.400,32.116 179.320 C 35.559 172.463,35.519 172.500,38.504 173.265 L 40.453 173.765 41.863 172.271 C 43.107 170.952,43.429 170.807,44.618 171.030 C 45.827 171.257,45.991 171.176,46.225 170.241 C 46.470 169.269,46.640 169.200,48.819 169.200 C 50.965 169.200,51.299 169.072,53.000 167.600 C 55.083 165.797,57.553 165.427,59.404 166.640 M78.571 183.829 C 79.295 184.552,79.326 184.675,78.858 184.964 C 78.670 185.080,78.099 184.731,77.588 184.188 C 76.514 183.044,77.447 182.704,78.571 183.829 M233.701 187.400 C 233.705 188.280,233.787 188.593,233.883 188.095 C 233.979 187.598,233.975 186.878,233.875 186.495 C 233.775 186.113,233.696 186.520,233.701 187.400 M336.937 198.200 C 336.939 199.960,337.009 200.630,337.093 199.689 C 337.178 198.749,337.177 197.309,337.091 196.489 C 337.005 195.670,336.936 196.440,336.937 198.200 M47.371 204.706 C 46.600 205.234,46.326 206.519,45.775 212.200 C 44.780 222.461,43.660 227.366,41.141 232.495 C 39.827 235.170,41.380 238.714,44.153 239.369 C 45.334 239.648,46.763 241.016,46.787 241.889 C 46.803 242.499,50.757 245.200,51.633 245.200 C 52.549 245.200,53.599 246.494,53.606 247.631 C 53.621 250.039,55.158 250.624,59.263 249.787 C 63.400 248.943,64.408 249.143,69.968 251.915 C 75.480 254.662,78.159 255.017,83.200 253.667 C 86.778 252.709,89.560 251.731,90.187 251.211 C 90.438 251.002,92.115 250.095,93.914 249.195 C 95.713 248.295,97.413 247.342,97.693 247.078 C 97.972 246.814,98.974 246.095,99.920 245.480 C 102.645 243.709,110.000 236.094,110.000 235.045 C 110.000 233.417,105.698 232.128,103.695 233.157 C 97.677 236.245,90.630 234.330,85.050 228.088 C 84.602 227.587,83.777 226.937,83.218 226.645 C 79.190 224.543,77.884 223.996,75.478 223.398 C 73.386 222.879,71.903 222.784,69.078 222.989 C 60.862 223.586,57.735 223.335,54.888 221.851 C 52.621 220.669,52.212 221.652,53.761 224.565 C 54.926 226.757,60.516 233.421,61.728 234.064 C 62.208 234.319,62.823 234.841,63.096 235.225 C 63.761 236.162,70.515 240.400,71.343 240.400 C 71.704 240.400,72.000 240.580,72.000 240.800 C 72.000 241.020,72.315 241.206,72.700 241.213 C 73.510 241.228,77.491 242.558,77.875 242.941 C 78.017 243.084,79.318 243.210,80.767 243.223 C 82.215 243.236,84.120 243.377,85.000 243.536 L 86.600 243.826 84.733 244.356 C 83.690 244.652,82.100 244.785,81.133 244.658 C 80.180 244.533,77.850 244.254,75.956 244.038 C 73.485 243.757,71.959 243.339,70.556 242.559 C 68.119 241.205,67.764 241.026,65.861 240.196 C 65.015 239.827,64.025 239.283,63.661 238.987 C 63.297 238.691,62.058 237.716,60.907 236.821 C 55.023 232.243,49.900 223.898,48.754 217.024 C 48.246 213.975,48.485 207.337,49.147 206.099 C 49.786 204.905,48.525 203.916,47.371 204.706 M47.960 207.300 C 47.879 209.934,47.283 210.763,47.240 208.300 C 47.217 207.007,47.375 206.000,47.600 206.000 C 47.820 206.000,47.982 206.585,47.960 207.300 M312.185 232.200 C 312.185 242.760,312.237 247.023,312.300 241.672 C 312.363 236.322,312.363 227.682,312.300 222.472 C 312.236 217.263,312.185 221.640,312.185 232.200 M48.462 219.800 C 48.934 221.560,49.158 222.140,50.390 224.800 C 51.900 228.058,53.235 229.987,57.000 234.352 C 64.597 243.158,77.706 247.240,89.777 244.556 C 93.032 243.832,96.800 242.195,96.800 241.505 C 96.800 241.085,95.844 241.121,95.380 241.559 C 94.359 242.524,81.273 242.943,78.200 242.110 C 74.274 241.045,69.139 238.750,67.569 237.359 C 67.221 237.052,66.771 236.799,66.569 236.798 C 65.326 236.793,57.335 228.738,55.507 225.648 C 54.349 223.690,53.993 221.970,54.900 222.710 C 56.510 224.025,59.713 224.405,66.978 224.143 C 76.978 223.783,79.833 224.767,87.036 231.058 C 91.831 235.245,96.622 236.317,102.680 234.558 C 105.378 233.776,108.544 233.942,108.721 234.876 C 108.897 235.802,105.155 239.939,101.192 243.200 C 100.256 243.970,99.290 244.780,99.045 245.001 C 95.443 248.242,80.933 254.388,78.200 253.831 C 73.535 252.880,72.267 252.432,69.510 250.763 C 65.702 248.457,64.630 248.246,59.563 248.804 C 54.958 249.311,54.628 249.187,54.249 246.814 C 53.978 245.122,52.826 244.000,51.360 244.000 C 50.886 244.000,50.274 243.730,50.000 243.400 C 49.726 243.070,49.259 242.800,48.961 242.800 C 48.664 242.800,48.150 242.305,47.818 241.700 C 47.024 240.248,45.765 238.800,45.297 238.800 C 41.589 238.800,40.998 235.814,43.397 229.200 C 44.672 225.683,46.400 217.876,46.400 215.632 C 46.400 213.111,47.347 213.348,47.716 215.962 C 47.891 217.193,48.226 218.920,48.462 219.800 M233.709 215.600 C 233.709 216.590,233.787 216.995,233.882 216.500 C 233.978 216.005,233.978 215.195,233.882 214.700 C 233.787 214.205,233.709 214.610,233.709 215.600 M233.781 235.200 C 233.781 243.230,233.834 246.515,233.899 242.500 C 233.965 238.485,233.965 231.915,233.899 227.900 C 233.834 223.885,233.781 227.170,233.781 235.200 M83.654 222.023 C 82.914 222.475,81.924 222.779,81.454 222.700 C 80.719 222.577,80.795 222.466,82.000 221.911 C 84.138 220.925,85.324 221.005,83.654 222.023 M198.942 228.200 C 198.941 230.180,199.008 231.040,199.092 230.112 C 199.176 229.184,199.177 227.564,199.095 226.512 C 199.012 225.460,198.943 226.220,198.942 228.200 M124.914 227.000 C 124.917 228.100,124.995 228.503,125.087 227.895 C 125.179 227.286,125.177 226.386,125.082 225.895 C 124.987 225.403,124.911 225.900,124.914 227.000 M287.256 250.000 C 287.256 250.330,287.411 250.960,287.600 251.400 C 287.817 251.904,287.944 251.978,287.944 251.600 C 287.944 251.270,287.789 250.640,287.600 250.200 C 287.383 249.696,287.256 249.622,287.256 250.000 M348.200 252.000 L 335.400 252.217 348.076 252.308 C 356.196 252.367,360.842 252.256,361.000 252.000 C 361.136 251.780,361.192 251.641,361.124 251.692 C 361.056 251.742,355.240 251.881,348.200 252.000 M214.700 252.299 C 218.055 252.366,223.545 252.366,226.900 252.299 C 230.255 252.232,227.510 252.178,220.800 252.178 C 214.090 252.178,211.345 252.232,214.700 252.299 M294.124 252.299 C 297.383 252.367,302.603 252.366,305.724 252.299 C 308.846 252.231,306.180 252.176,299.800 252.177 C 293.420 252.177,290.866 252.232,294.124 252.299 M168.700 253.482 C 169.195 253.578,170.005 253.578,170.500 253.482 C 170.995 253.387,170.590 253.309,169.600 253.309 C 168.610 253.309,168.205 253.387,168.700 253.482 M161.505 254.283 C 162.002 254.379,162.722 254.375,163.105 254.275 C 163.487 254.175,163.080 254.096,162.200 254.101 C 161.320 254.105,161.007 254.187,161.505 254.283 " stroke="none" fill="#e9e0c0" fill-rule="evenodd"></path>
  </g>
</svg>