<svg width="552.81023" height="515.45882" xmlns="http://www.w3.org/2000/svg">
 <g>
  <title>Layer 1</title>
  <path id="svg_1" fill="#f2f2f2" d="m372.63287,365.4151l-198.30796,0c-16.66894,0 -30.22987,-13.56093 -30.22987,-30.22987l0,-198.30797c0,-16.66894 13.56093,-30.22987 30.22987,-30.22987l198.30797,0c16.66894,0 30.22987,13.56093 30.22987,30.22987l0,198.30797c0,16.66894 -13.56093,30.22987 -30.22987,30.22987l-0.00001,0zm-198.30796,-253.93094c-14.02422,0 -25.39309,11.36888 -25.39309,25.39309l0,198.30797c0,14.02422 11.36888,25.39309 25.39309,25.39309l138.90984,0c46.8289,0 84.79122,-37.96232 84.79122,-84.79122l0,-138.90983c0,-14.02422 -11.36888,-25.39309 -25.39309,-25.39309l-198.30797,0l0,-0.00001z"/>
  <path id="svg_2" fill="#f2f2f2" d="m195.70439,132.1061c-9.38575,0 -17.02112,7.63537 -17.02112,17.02112l0,26.64175c0,9.38575 7.63537,17.02112 17.02112,17.02112l26.64175,0c9.38575,0 17.02112,-7.63537 17.02112,-17.02112l0,-26.64175c0,-9.38575 -7.63537,-17.02112 -17.02112,-17.02112l-26.64175,0z"/>
  <path id="svg_3" fill="#f2f2f2" d="m195.70439,207.1061c-9.38575,0 -17.02112,7.63537 -17.02112,17.02112l0,26.64175c0,9.38575 7.63537,17.02112 17.02112,17.02112l26.64175,0c9.38575,0 17.02112,-7.63537 17.02112,-17.02112l0,-26.64175c0,-9.38575 -7.63537,-17.02112 -17.02112,-17.02112l-26.64175,0z"/>
  <path id="svg_4" fill="#f2f2f2" d="m195.70439,282.1061c-9.38575,0 -17.02112,7.63537 -17.02112,17.02112l0,26.64175c0,9.38575 7.63537,17.02112 17.02112,17.02112l26.64175,0c9.38575,0 17.02112,-7.63537 17.02112,-17.02112l0,-26.64175c0,-9.38575 -7.63537,-17.02112 -17.02112,-17.02112l-26.64175,0z"/>
  <g id="svg_5">
   <path id="svg_6" fill="#1aaa2c" d="m212.3715,67.1061c-11.82633,0 -21.44711,9.62079 -21.44711,21.44711l0,33.56939c0,11.82633 9.62079,21.44711 21.44711,21.44711l33.56939,0c11.82633,0 21.44711,-9.62079 21.44711,-21.44711l0,-33.56939c0,-11.82633 -9.62079,-21.44711 -21.44711,-21.44711l-33.56939,0z"/>
   <path id="svg_7" fill="#1176ad" d="m322.89034,160.9186c-11.82633,0 -21.44711,9.62079 -21.44711,21.44711l0,33.56939c0,11.82633 9.62079,21.44711 21.44711,21.44711l33.56939,0c11.82633,0 21.44711,-9.62079 21.44711,-21.44711l0,-33.56939c0,-11.82633 -9.62079,-21.44711 -21.44711,-21.44711l-33.56939,0z"/>
   <g id="svg_8">
    <polygon id="svg_9" fill="#a0616a" points="274.84228515625,498.8079528808594 268.0226745605469,498.7504577636719 265.0037841796875,471.8326416015625 275.06890869140625,471.91748046875 274.84228515625,498.8079528808594 "/>
    <path id="svg_10" fill="#2f2e41" d="m252.99807,509.65233c-0.01481,1.6785 1.33828,3.06028 3.0229,3.07572l13.55914,0.11314l2.37372,-4.81149l0.8718,4.83603l5.11615,0.0464l-1.2919,-17.24842l-1.77998,-0.11842l-7.26029,-0.50048l-2.34232,-0.15686l-0.0411,4.88024l-10.89209,7.38777c-0.82869,0.56298 -1.32776,1.49545 -1.33604,2.49637l0.00001,0z"/>
   </g>
   <g id="svg_11">
    <polygon id="svg_12" fill="#a0616a" points="309.5400695800781,498.8079528808594 302.7204284667969,498.7504577636719 299.7015686035156,471.8326416015625 309.7666931152344,471.91748046875 309.5400695800781,498.8079528808594 "/>
    <path id="svg_13" fill="#2f2e41" d="m287.69584,509.65233c-0.01481,1.6785 1.33828,3.06028 3.0229,3.07572l13.55914,0.11314l2.37372,-4.81149l0.8718,4.83603l5.11615,0.0464l-1.2919,-17.24842l-1.77998,-0.11842l-7.26029,-0.50048l-2.34232,-0.15686l-0.0411,4.88024l-10.89209,7.38777c-0.82869,0.56298 -1.32776,1.49545 -1.33604,2.49637l0.00001,0z"/>
   </g>
   <path id="svg_14" fill="#2f2e41" d="m248.08109,281.17831l27.64346,0.87295l26.18854,5.81968s-2.61885,3.20082 6.11066,11.93033c0,0 11.63935,20.36886 3.49181,40.15576l-3.49181,79.14758s10.18085,55.79388 2.40219,73.5511l-10.28082,0.64255l-17.39634,-73.54982l-8.47914,-79.20944l-4.07377,77.98365s15.58482,53.52659 5.74359,74.77562l-11.13465,-0.64255l-19.05157,-74.13307s-8.14755,-85.54922 -6.98361,-101.84432c1.16394,-16.29509 9.31148,-35.50002 9.31148,-35.50002l-0.00002,0z"/>
   <g id="svg_15">
    <path id="svg_16" fill="#a0616a" d="m340.91407,156.11273c-3.77892,0.97845 -6.04918,4.83514 -5.07069,8.61407c0.44834,1.73156 1.50489,3.14028 2.87746,4.07089l-0.00041,0.00966l-0.53609,12.98479l9.93665,4.59846l0.7932,-19.98146l-0.06921,0.00211c0.86159,-1.53494 1.15931,-3.38933 0.68324,-5.22793c-0.97848,-3.77893 -4.83517,-6.04911 -8.61416,-5.0706l0.00001,0.00001z"/>
    <path id="svg_17" fill="#3f3d56" d="m285.37793,202.45483c-2.08746,-2.06912 -3.29844,-4.87434 -3.34374,-7.92486c-0.06088,-4.09228 1.98991,-7.80651 5.48559,-9.93539c4.02563,-2.45174 9.05967,-2.20364 12.82498,0.63119l31.20286,23.4935l5.55989,-33.84423l11.93675,3.84257l-2.84806,44.07c-0.19948,3.08263 -1.94154,5.7983 -4.6607,7.26426c-2.71916,1.46596 -5.94507,1.42927 -8.63009,-0.09817l-45.0929,-25.65511c-0.90583,-0.51546 -1.7216,-1.13691 -2.43458,-1.84377l0,0.00001z"/>
   </g>
   <g id="svg_18">
    <path id="svg_19" fill="#a0616a" d="m237.79919,137.1819c1.9947,3.35541 0.89159,7.69261 -2.46385,9.68729c-1.5375,0.914 -3.27962,1.17053 -4.90955,0.86503l-0.00651,0.00715l-8.76131,9.59852l-10.29404,-3.73037l13.50476,-14.7482l0.04766,0.05023c0.46883,-1.69663 1.563,-3.22314 3.19555,-4.19363c3.35544,-1.99468 7.69258,-0.89152 9.68729,2.46398z"/>
    <path id="svg_20" fill="#3f3d56" d="m241.58351,208.7873l-50.08512,-13.52903c-2.98215,-0.8057 -5.29885,-3.05086 -6.19773,-6.00635c-0.89888,-2.95549 -0.22401,-6.11051 1.80467,-8.44008l29.00517,-33.30129l11.18221,5.67535l-19.87987,27.94879l38.69929,5.28473c4.66979,0.63785 8.41937,4.00591 9.55199,8.58126c0.98359,3.97296 -0.17507,8.05448 -3.09949,10.91773c-2.17991,2.13441 -5.01491,3.27394 -7.95408,3.27362c-1.00399,0 -2.02084,-0.13303 -3.02702,-0.40473l-0.00002,0z"/>
   </g>
   <path id="svg_21" fill="#3f3d56" d="m312.98891,292.82223l-70.0381,3.21276c-1.92358,-2.92109 -1.40264,-7.31347 1.29122,-12.81367c10.17125,-20.76721 2.44654,-60.05462 -2.74985,-80.51179c-1.45798,-5.73976 2.4559,-11.44589 8.34855,-12.03515l6.60367,-0.66037l6.10424,-18.63399l21.37875,0l8.86923,10.13266l15.05189,9.14389c-2.73972,28.22064 -14.41356,68.0706 2.2172,88.05507c3.63737,4.37087 4.66873,9.09743 2.92321,14.1106l-0.00001,-0.00001z"/>
   <circle id="svg_22" fill="#a0616a" r="20.82357" cy="150.9868" cx="270.51868"/>
   <path id="svg_23" fill="#35221a" d="m294.08231,137.65762c2.8972,-10.56287 -28.67928,-19.62073 -34.81549,-11.11444c-0.85326,-1.20934 -4.00655,-1.9439 -5.45336,-1.57293c-1.44681,0.37097 -2.66357,1.29841 -3.85072,2.19619c-1.6323,1.2539 -3.32392,2.55231 -4.32553,4.35524c-1.00909,1.79551 -1.16487,4.24398 0.19287,5.80205c1.07584,1.23904 2.9663,7.82332 4.58375,8.14978c1.12773,0.23 2.07745,0.41549 2.89358,0.54904c0.72714,-1.06098 2.58132,-2.39375 2.44778,-3.67731c1.09807,0.7271 0.69691,2.00635 0.47552,3.31376c-0.73718,4.35363 -17.34626,38.05525 -7.83345,28.12415c0.9423,0.55647 2.10715,1.07583 3.45008,1.55065c2.27775,-3.43523 4.14747,-7.48625 5.37914,-11.7228l0.00872,0.07826c0.42405,3.68168 3.11456,6.70263 6.67421,7.73388c14.27942,4.13681 25.82989,-1.93337 29.80326,-12.87997c-1.45451,-2.95297 -2.08826,-2.63223 -1.95797,-2.72004c1.81577,-1.2238 4.31135,-0.42345 5.09179,1.62242c0.2301,0.60321 0.43924,1.1182 0.62043,1.50569c2.07002,-7.40469 4.53201,-6.33593 -3.38458,-21.29362l-0.00003,0z"/>
   <path id="svg_24" fill="#35221a" d="m284.23139,129.99395l-1.4586,-7.45697c-0.12261,-0.62684 -0.23896,-1.30695 0.04369,-1.87973c0.36317,-0.73595 1.29668,-1.04096 2.10893,-0.92366c0.81225,0.11729 1.41978,0.85923 2.22791,1.0021c2.80975,0.49673 6.52379,-2.27858 7.53053,4.7424c0.41975,2.92732 5.09082,3.23652 6.65079,5.74883c1.55997,2.51232 1.75148,6.13862 -0.37749,8.19111c-1.70031,1.63923 -4.43095,1.82843 -6.63933,0.99107c-2.20838,-0.83736 -3.98071,-2.52874 -5.52887,-4.31237s-2.9501,-3.71374 -4.73583,-5.25948"/>
   <path id="svg_25" fill="#1176ad" d="m295.19459,141.33592c-5.69794,-0.79597 -9.5818,-2.86826 -11.54365,-6.15883c-2.5677,-4.30742 -0.84774,-9.05031 -0.77338,-9.25017l1.20447,0.44772c-0.016,0.04361 -1.57626,4.38523 0.67957,8.15551c1.75478,2.9329 5.32489,4.79466 10.61057,5.53322l-0.17758,1.27255z"/>
  </g>
  <path id="svg_26" fill="#777777" d="m318.93382,90.76232c-16.75117,0 -30.38116,-13.62998 -30.38116,-30.38116s13.62998,-30.38116 30.38116,-30.38116s30.38116,13.62998 30.38116,30.38116s-13.62998,30.38116 -30.38116,30.38116zm0,-48.60985c-10.05189,0 -18.22869,8.1768 -18.22869,18.22869s8.1768,18.22869 18.22869,18.22869s18.22869,-8.1768 18.22869,-18.22869s-8.1768,-18.22869 -18.22869,-18.22869z"/>
  <path id="svg_27" fill="#777777" d="m365.67748,111.40904c-1.48939,0 -2.98174,-0.54294 -4.15367,-1.64367l-28.51497,-26.72296c-2.45067,-2.29342 -2.57528,-6.13854 -0.27889,-8.58624c2.29045,-2.4566 6.13557,-2.57824 8.58624,-0.27889l28.51497,26.72296c2.45067,2.29342 2.57528,6.13854 0.27889,8.58624c-1.19566,1.27874 -2.81263,1.92256 -4.43256,1.92256l-0.00001,0z"/>
  <g id="svg_28">
   <path id="svg_29" fill="#f2f2f2" d="m498.55135,498.12587c2.06592,0.12937 3.20768,-2.43737 1.64468,-3.93333l-0.1555,-0.61819c0.02047,-0.04951 0.04105,-0.09897 0.06178,-0.14839c2.08924,-4.9818 9.16992,-4.94742 11.24139,0.04177c1.83859,4.42817 4.17942,8.86389 4.75579,13.54594c0.25838,2.0668 0.14213,4.17236 -0.31648,6.20047c4.30807,-9.41059 6.57515,-19.68661 6.57515,-30.02077c0,-2.59652 -0.14213,-5.19301 -0.43275,-7.78295c-0.239,-2.11854 -0.56839,-4.2241 -0.99471,-6.31034c-2.30575,-11.2772 -7.29852,-22.01825 -14.50012,-30.98962c-3.46197,-1.89248 -6.34906,-4.85065 -8.09295,-8.39652c-0.62649,-1.27891 -1.11739,-2.65462 -1.34991,-4.05618c0.39398,0.05168 1.48556,-5.94866 1.18841,-6.3168c0.54906,-0.83317 1.53178,-1.24733 2.13144,-2.06034c2.98232,-4.04341 7.0912,-3.33741 9.23621,2.15727c4.58224,2.31266 4.62659,6.14806 1.81495,9.83683c-1.78878,2.34682 -2.03456,5.52233 -3.60408,8.03478c0.16151,0.20671 0.32944,0.40695 0.4909,0.61366c2.96106,3.79788 5.52208,7.88002 7.68104,12.16859c-0.61017,-4.76621 0.29067,-10.50822 1.82641,-14.20959c1.74819,-4.21732 5.02491,-7.76915 7.91045,-11.41501c3.46601,-4.37924 10.57337,-2.46806 11.18401,3.08332c0.00591,0.05375 0.01166,0.10745 0.01731,0.1612c-0.4286,0.24178 -0.84849,0.49867 -1.25864,0.76992c-2.33949,1.54723 -1.53096,5.17386 1.24107,5.60174l0.06277,0.00967c-0.15503,1.54366 -0.41984,3.07444 -0.80734,4.57937c3.70179,14.31579 -4.29011,19.5299 -15.70147,19.76412c-0.25191,0.12916 -0.49738,0.25832 -0.74929,0.38109c1.15617,3.25525 2.07982,6.59447 2.76441,9.97891c0.61359,2.99043 1.03991,6.01317 1.27885,9.04888c0.29715,3.83006 0.27129,7.67959 -0.05168,11.50323l0.01939,-0.13562c0.82024,-4.21115 3.10671,-8.14462 6.4266,-10.87028c4.94561,-4.06264 11.93282,-5.55869 17.26826,-8.82425c2.56833,-1.57196 5.85945,0.45945 5.41121,3.43708l-0.02182,0.14261c-0.79443,0.32289 -1.56947,0.69755 -2.31871,1.11733c-0.4286,0.24184 -0.84848,0.49867 -1.25864,0.76992c-2.33949,1.54729 -1.53096,5.17392 1.24107,5.6018l0.06282,0.00965c0.0452,0.00646 0.08397,0.01295 0.12911,0.01944c-1.36282,3.23581 -3.26168,6.23922 -5.63854,8.82922c-2.31463,12.49713 -12.25603,13.68282 -22.89022,10.04354l-0.00648,0c-1.16259,5.06378 -2.86128,10.01127 -5.0444,14.72621l-18.02019,0c-0.06463,-0.20022 -0.12274,-0.40692 -0.18089,-0.60717c1.6664,0.10341 3.34571,0.00649 4.98629,-0.29702c-1.33701,-1.64059 -2.67396,-3.29409 -4.01097,-4.93462c-0.03229,-0.0323 -0.05816,-0.0646 -0.08397,-0.09689c-0.67817,-0.8396 -1.36282,-1.67283 -2.04099,-2.51246l-0.00036,-0.00102c-0.04245,-2.57755 0.26652,-5.14662 0.87876,-7.63984l0.00057,-0.00035l0,-0.00001z"/>
   <path id="svg_30" fill="#ccc" d="m0,514.26882c0,0.66003 0.53003,1.19 1.19006,1.19l550.28998,0c0.65997,0 1.19,-0.52997 1.19,-1.19c0,-0.65997 -0.53003,-1.19 -1.19,-1.19l-550.28998,0c-0.66003,0 -1.19006,0.53003 -1.19006,1.19z"/>
  </g>
 </g>

</svg>