<svg width="578.0013" height="621.92557" xmlns="http://www.w3.org/2000/svg" data-name="Layer 1">

 <g>
  <title>Layer 1</title>
  <path id="svg_1" fill="#f2f2f2" d="m366.64305,352.86002l-249.84894,64.339a33.03735,33.03735 0 0 1 -40.18683,-23.728l-75.5609,-293.42724a33.03734,33.03734 0 0 1 23.728,-40.18683l232.44363,-59.85691l59.49463,26.63379l73.65843,286.03936a33.03734,33.03734 0 0 1 -23.72802,40.18683z"/>
  <path id="svg_2" fill="#fff" d="m27.14337,69.05678a23.52653,23.52653 0 0 0 -16.89723,28.61789l75.5609,293.42725a23.52654,23.52654 0 0 0 28.6179,16.89723l249.84894,-64.339a23.52654,23.52654 0 0 0 16.89723,-28.61789l-72.51713,-281.6073l-52.285,-23.40643l-229.22561,59.02825z"/>
  <path id="svg_3" fill="#f2f2f2" d="m316.07783,28.1475l-38.66749,9.95733a10.99077,10.99077 0 0 1 -13.38436,-7.9027l-7.35434,-28.55927a0.68692,0.68692 0 0 1 0.944,-0.7991l58.56966,26.01073a0.68692,0.68692 0 0 1 -0.10747,1.29301z"/>
  <path id="svg_4" fill="#ccc" d="m295.73502,278.72811l-113.75273,29.29267a5.49538,5.49538 0 0 1 -2.74083,-10.64353l113.75273,-29.29267a5.49538,5.49538 0 1 1 2.74083,10.64353z"/>
  <path id="svg_5" fill="#ccc" d="m322.31246,291.03611l-135.705,34.9456a5.49538,5.49538 0 0 1 -2.74082,-10.64353l135.705,-34.94561a5.49539,5.49539 0 0 1 2.74084,10.64354l-0.00002,0z"/>
  <circle fill="#e6e6e6" r="19.42315" cy="323.87767" cx="135.55495" data-name="Ellipse 44" id="a597741b-ffcf-4aba-98b0-6652ef5d57c9"/>
  <path id="svg_6" fill="#fff" d="m283.63983,227.89639l-151.07494,38.88909a17.01917,17.01917 0 0 1 -20.70125,-12.22539l-31.6597,-122.9905a17.01916,17.01916 0 0 1 12.22538,-20.7012l151.075,-38.88909a17.01916,17.01916 0 0 1 20.7012,12.22539l31.65971,122.9905a17.01917,17.01917 0 0 1 -12.2254,20.7012z"/>
  <path id="svg_7" fill="#e6e6e6" d="m283.63983,227.89639l-151.07494,38.88909a17.01917,17.01917 0 0 1 -20.70125,-12.22539l-31.6597,-122.9905a17.01916,17.01916 0 0 1 12.22538,-20.7012l151.075,-38.88909a17.01916,17.01916 0 0 1 20.7012,12.22539l31.65971,122.9905a17.01917,17.01917 0 0 1 -12.2254,20.7012zm-190.71189,-115.09115a15.017,15.017 0 0 0 -10.7871,18.26578l31.6597,122.9905a15.017,15.017 0 0 0 18.26577,10.7871l151.075,-38.88908a15.017,15.017 0 0 0 10.7871,-18.26578l-31.65977,-122.9905a15.017,15.017 0 0 0 -18.26578,-10.7871l-151.07492,38.88908z"/>
  <path fill="#f2f2f2" d="m235.83998,113.33353l-76.24555,19.62681a2.73087,2.73087 0 0 1 -3.30848,-1.71854a2.63064,2.63064 0 0 1 1.85283,-3.33925l77.61329,-19.97889c3.13521,1.58858 2.31023,4.83781 0.087,5.41011l0.00091,-0.00024z" data-name="Path 411" id="b056fd3f-f1a0-44f0-b006-deff0bee637d-149"/>
  <path fill="#f2f2f2" d="m239.28264,126.70752l-76.24555,19.62681a2.73089,2.73089 0 0 1 -3.30845,-1.71855a2.63065,2.63065 0 0 1 1.85284,-3.33925l77.61329,-19.97889c3.13521,1.58858 2.31022,4.83781 0.087,5.41011l0.00087,-0.00023z" data-name="Path 412" id="f1ea6668-a825-428d-96fe-a2c4e1b5a672-150"/>
  <path fill="#e6e6e6" d="m148.51476,158.19195l-23.2694,5.98992a2.962,2.962 0 0 1 -3.60325,-2.12795l-7.06858,-27.45979a2.962,2.962 0 0 1 2.12794,-3.60325l23.2694,-5.98991a2.963,2.963 0 0 1 3.60325,2.12795l7.06859,27.45982a2.962,2.962 0 0 1 -2.12795,3.60324l0,-0.00003z" data-name="Path 413" id="ee9aa382-a9c9-40d0-8ed3-22ec2dd616d6-151"/>
  <path fill="#f2f2f2" d="m246.10978,154.14792l-116.36468,29.95411a2.73087,2.73087 0 0 1 -3.30847,-1.71854a2.63062,2.63062 0 0 1 1.85284,-3.33925l117.73335,-30.30646c3.13521,1.58859 2.31022,4.83781 0.087,5.41012l-0.00004,0.00002z" data-name="Path 414" id="be954d2b-d8b8-4d26-80a0-a319e99a4b10-152"/>
  <path fill="#f2f2f2" d="m249.55347,167.52578l-116.36469,29.95415a2.73086,2.73086 0 0 1 -3.30846,-1.71854a2.63061,2.63061 0 0 1 1.85283,-3.33926l117.73335,-30.30643c3.13521,1.58858 2.31022,4.83781 0.087,5.41011l-0.00003,-0.00003z" data-name="Path 415" id="baaae9e4-1b4d-40c2-8a9d-f2abb078b489-153"/>
  <path fill="#f2f2f2" d="m252.9949,180.89496l-116.36469,29.95412a2.73086,2.73086 0 0 1 -3.30846,-1.71854a2.63061,2.63061 0 0 1 1.85283,-3.33926l117.73335,-30.30643c3.13521,1.58858 2.31023,4.83781 0.087,5.41011l-0.00003,0z" data-name="Path 416" id="a91bf4c9-37f6-4391-92ed-1882bd0ce21c-154"/>
  <path fill="#f2f2f2" d="m256.43832,194.27186l-116.36468,29.95412a2.73087,2.73087 0 0 1 -3.30847,-1.71854a2.63063,2.63063 0 0 1 1.85284,-3.33926l117.73335,-30.3064c3.13521,1.58858 2.31022,4.83781 0.087,5.41011l-0.00004,-0.00003z" data-name="Path 417" id="efb98e07-468b-4c85-9a64-ee4cc5493d6f-155"/>
  <path fill="#f2f2f2" d="m259.88001,207.64202l-116.36468,29.95412a2.73088,2.73088 0 0 1 -3.30847,-1.71855a2.63062,2.63062 0 0 1 1.85284,-3.33925l117.73335,-30.30643c3.13521,1.58858 2.31022,4.83781 0.087,5.41011l-0.00004,0z" data-name="Path 418" id="aeb1db98-32e5-40b8-ab89-fdad6a3263dc-156"/>
  <path fill="#fff" d="m136.98792,330.68613a2.01449,2.01449 0 0 1 -1.27407,-0.08782l-0.02505,-0.01034l-5.29126,-2.24319a2.02852,2.02852 0 1 1 1.58747,-3.73356l3.42865,1.45835l4.49293,-10.56929a2.02766,2.02766 0 0 1 2.65942,-1.07259l0.00068,0.00028l-0.027,0.06912l0.02812,-0.06941a2.03011,2.03011 0 0 1 1.0723,2.66008l-5.28586,12.42716a2.02886,2.02886 0 0 1 -1.36522,1.16845l-0.00111,0.00276z" data-name="Path 395" id="be265de5-288f-49a7-867d-c42e7cdbf4db-157"/>
  <path id="svg_8" fill="#e6e6e6" d="m462.47521,464.67753l-258,0a33.03734,33.03734 0 0 1 -33,-33l0,-303a33.03734,33.03734 0 0 1 33,-33l240.02685,0l50.97315,40.62891l0,295.37109a33.03734,33.03734 0 0 1 -33,33z"/>
  <path id="svg_9" fill="#fff" d="m204.4751,105.17753a23.52654,23.52654 0 0 0 -23.5,23.5l0,303a23.52653,23.52653 0 0 0 23.5,23.5l258,0a23.52653,23.52653 0 0 0 23.5,-23.5l0,-290.79443l-44.79614,-35.70557l-236.70386,0z"/>
  <path id="svg_10" fill="#1aaa2c" d="m412.2942,193.28178l-117.46379,0a5.49538,5.49538 0 0 1 0,-10.99076l117.46379,0a5.49538,5.49538 0 1 1 0,10.99076z"/>
  <path id="svg_11" fill="#1aaa2c" d="m434.96264,211.82872l-140.13223,0a5.49539,5.49539 0 0 1 0,-10.99077l140.13223,0a5.49539,5.49539 0 1 1 0,10.99077z"/>
  <path id="svg_12" fill="#ccc" d="m412.29489,265.40555l-117.46,0a5.495,5.495 0 1 0 0,10.99l117.46,0a5.495,5.495 0 0 0 0,-10.99z"/>
  <path id="svg_13" fill="#ccc" d="m434.96481,283.95559l-140.12988,0a5.495,5.495 0 1 0 0,10.99l140.12988,0a5.495,5.495 0 0 0 0,-10.99z"/>
  <path id="svg_14" fill="#ccc" d="m412.2942,359.51711l-117.46379,0a5.49538,5.49538 0 0 1 0,-10.99076l117.46379,0a5.49538,5.49538 0 1 1 0,10.99076z"/>
  <path id="svg_15" fill="#ccc" d="m434.96264,378.06403l-140.13223,0a5.49539,5.49539 0 0 1 0,-10.99077l140.13223,0a5.49539,5.49539 0 1 1 0,10.99077z"/>
  <circle fill="#1aaa2c" r="19.42315" cy="197.05988" cx="245.91553" data-name="Ellipse 44" id="abdb8e2f-a218-463c-85f4-c869fef49971"/>
  <path fill="#fff" d="m243.99079,204.46923a2.0144,2.0144 0 0 1 -1.21191,-0.40277l-0.02168,-0.01626l-4.5647,-3.49185a2.02852,2.02852 0 1 1 2.46838,-3.21972l2.95665,2.26729l6.98671,-9.11494a2.02767,2.02767 0 0 1 2.84288,-0.3755l0.00058,0.00044l-0.04336,0.06021l0.04454,-0.06021a2.03011,2.03011 0 0 1 0.37507,2.84345l-8.2179,10.71637a2.02892,2.02892 0 0 1 -1.61348,0.79109l-0.00178,0.0024z" data-name="Path 395" id="ba7dbbd6-0052-44b1-a552-47a8298b8d3e-158"/>
  <path id="svg_16" fill="#ccc" d="m267.33493,280.17556a19.42256,19.42256 0 0 1 -19.41992,19.43a4.17626,4.17626 0 0 1 -0.5,-0.02a19.422,19.422 0 1 1 19.91992,-19.41z"/>
  <circle fill="#ccc" r="19.42315" cy="363.29519" cx="245.91553" data-name="Ellipse 44" id="e4a71040-498e-4958-ad41-c2d79154b8f7"/>
  <path id="svg_17" fill="#ccc" d="m494.48298,137.61399l-39.929,0a10.99077,10.99077 0 0 1 -10.99076,-10.99077l0,-29.491a0.68692,0.68692 0 0 1 1.11347,-0.53844l50.23281,39.79483a0.68692,0.68692 0 0 1 -0.42652,1.22538z"/>
  <path id="svg_18" fill="#1176ad" d="m267.33493,280.17556a19.42256,19.42256 0 0 1 -19.41992,19.43a4.17626,4.17626 0 0 1 -0.5,-0.02a42.05076,42.05076 0 0 1 3.77,-38.56a19.43323,19.43323 0 0 1 16.14992,19.15z"/>
  <path id="svg_19" fill="#1176ad" d="m289.33493,270.90555a5.50988,5.50988 0 0 1 5.5,-5.5l29.27,0a41.57257,41.57257 0 0 1 3.60986,10.99l-32.87986,0a5.50129,5.50129 0 0 1 -5.5,-5.49z"/>
  <path id="svg_20" fill="#1176ad" d="m328.39499,283.95559a41.92449,41.92449 0 0 1 -1.46,10.99l-32.1001,0a5.495,5.495 0 1 1 0,-10.99l33.5601,0z"/>
  <path id="svg_21" fill="#898989" d="m400.81664,350.73299a6.00013,6.00013 0 0 1 -8.24672,1.9979l-70.0049,-42.70029a6,6 0 0 1 6.24883,-10.24462l70.00489,42.70029a6.00014,6.00014 0 0 1 1.9979,8.24672z"/>
  <path id="svg_22" fill="#898989" d="m330.81174,309.0327a48,48 0 1 1 -15.98318,-65.97376a48.05436,48.05436 0 0 1 15.98318,65.97376zm-71.71233,-43.74176a36,36 0 1 0 49.48033,-11.98738a36.04071,36.04071 0 0 0 -49.48033,11.98738z"/>
  <circle id="svg_23" fill="#a0616a" r="24.56103" cy="267.17256" cx="484.60301"/>
  <path id="svg_24" fill="#a0616a" d="m483.01564,404.86397a11.002,11.002 0 0 1 8.32251,-14.15136a10.46752,10.46752 0 0 1 1.45923,-0.17969l25.87158,-41.52344l-23.63232,-22.46679a9.43208,9.43208 0 1 1 13.1206,-13.55274l32.6294,32.17383l0.06567,0.08008a8.54468,8.54468 0 0 1 -0.59448,10.18457l-36.25,42.873a10.301,10.301 0 0 1 0.27,1.0459a11.0026,11.0026 0 0 1 -9.875,13.11621q-0.46839,0.041 -0.93213,0.041a11.0367,11.0367 0 0 1 -10.45506,-7.64057z"/>
  <polygon id="svg_25" fill="#a0616a" points="444.151 609.001 431.891 609 426.059 561.712 444.153 561.713 444.151 609.001"/>
  <path id="svg_26" fill="#000000" d="m447.27734,620.88486l-39.53051,-0.00146l0,-0.5a15.38605,15.38605 0 0 1 15.38647,-15.38623l0.001,0l24.1438,0.001l-0.00076,15.88669z"/>
  <polygon id="svg_27" fill="#a0616a" points="566.007 592.05 555.473 598.322 526.268 560.676 541.815 551.419 566.007 592.05"/>
  <path id="svg_28" fill="#000000" d="m574.77302,600.66156l-33.96586,20.2233l-0.25581,-0.4296a15.386,15.386 0 0 1 5.34836,-21.09206l0.00084,-0.0005l20.74515,-12.35158l8.12732,13.65044z"/>
  <path id="svg_29" fill="#000000" d="m424.51264,588.1755c-8.21289,-96.70606 -13.09863,-186.54492 16.92408,-223.19336l0.23217,-0.28418l50.52564,20.21094l0.08325,0.18066c0.17041,0.37109 16.97388,37.333 13.0542,62.19434l12.46266,57.32812l40.63574,68.041a4.50136,4.50136 0 0 1 -2.05074,6.42776l-17.65918,7.76953a4.52142,4.52142 0 0 1 -5.64844,-1.76562l-44.2041,-72.08008l-24.96778,-55.28613a1.50028,1.50028 0 0 0 -2.85888,0.459l-13.8401,130.09665a4.4918,4.4918 0 0 1 -4.47461,4.02441l-13.72827,0a4.53045,4.53045 0 0 1 -4.48564,-4.12304z"/>
  <path id="svg_30" fill="#1176ad" d="m441.60692,365.74878l-0.24072,-0.11523l-0.0376,-0.26465c-1.88745,-13.21 0.34668,-27.8877 6.63989,-43.625a34.63634,34.63634 0 0 1 40.20191,-20.74317l0,0a34.59441,34.59441 0 0 1 22.06055,16.96387a34.2209,34.2209 0 0 1 2.3728,27.4248c-7.93384,23.2002 -18.22583,44.90723 -18.32886,45.124l-0.21558,0.45312l-52.45239,-25.21774z"/>
  <path id="svg_31" fill="#a0616a" d="m386.48085,332.84529a11.002,11.002 0 0 1 16.16979,2.83982a10.46856,10.46856 0 0 1 0.67932,1.3039l47.95411,9.69217l12.7683,-30.00357a9.43208,9.43208 0 1 1 17.28928,7.54372l-18.71,41.83025l-0.052,0.08956a8.54469,8.54469 0 0 1 -9.74785,3.00972l-52.8527,-18.94078a10.30273,10.30273 0 0 1 -0.88511,0.61918a11.00261,11.00261 0 0 1 -15.74382,-4.6565q-0.20244,-0.42436 -0.36484,-0.85874a11.0367,11.0367 0 0 1 3.49552,-12.46873z"/>
  <path id="svg_32" fill="#3a231e" d="m573.33151,293.47525c-2.36572,-4.19178 -5.8125,-8.03119 -10.36914,-9.58069c-5.88476,-2.001 -12.25683,0.12964 -18.30713,1.55218c-4.66162,1.09595 -9.53173,1.76679 -14.23046,0.84192c-4.69825,-0.92492 -9.23047,-3.65924 -11.36817,-7.94409c-3.145,-6.30359 -0.4956,-13.82062 -0.687,-20.86255a25.33438,25.33438 0 0 0 -31.92334,-23.81061c-5.79346,-1.67193 -11.03906,-1.82659 -14.62256,2.62714a17.0001,17.0001 0 0 0 -17,17l16.25537,0a16.1496,16.1496 0 0 0 2.4541,11.93109c2.86963,4.21582 7.85938,7.2655 8.81983,12.274c0.93115,4.85351 -2.36817,9.45868 -5.8291,12.98669c-3.46045,3.528 -7.4751,7.02381 -8.55567,11.84626a14.68871,14.68871 0 0 0 2.10352,10.56475a34.40329,34.40329 0 0 0 7.38623,8.13575a108.40184,108.40184 0 0 0 45.0376,23.04034c11.7041,2.81781 24.50586,3.54822 35.37109,-1.6355a35.12563,35.12563 0 0 0 15.46484,-48.96667l-0.00001,-0.00001z"/>
  <path id="svg_33" fill="#ccc" d="m577.00129,621.92556l-190,0a1,1 0 0 1 0,-2l190,0a1,1 0 0 1 0,2z"/>
 </g>
</svg>