<svg width="709.53268" height="558.59384" xmlns="http://www.w3.org/2000/svg" data-name="Layer 1">

 <g>
  <title>Layer 1</title>
  <rect id="svg_1" fill="#e6e6e6" height="412.35762" width="643.86162" y="0.36501" x="0.27492"/>
  <rect id="svg_2" fill="#fff" height="336.24257" width="607.03947" y="52.08494" x="18.68599"/>
  <rect id="svg_3" fill="#1176ad" height="27.3536" width="643.86163"/>
  <circle id="svg_4" fill="#fff" r="5.06978" cy="13.98461" cx="20.327"/>
  <circle id="svg_5" fill="#fff" r="5.06978" cy="13.98461" cx="39.57061"/>
  <circle id="svg_6" fill="#fff" r="5.06978" cy="13.98461" cx="58.81422"/>
  <rect id="svg_7" fill="#e6e6e6" height="266.46677" width="155.98055" y="86.97284" x="73.84385"/>
  <path id="svg_8" d="m256.7496,86.97284l129.9838,0l0,73.34799l-129.9838,0l0,-73.34799z" opacity="undefined" fill="#1aaa2c"/>
  <rect id="svg_9" fill="#e6e6e6" height="78.91873" width="129.9838" y="180.74686" x="256.7496"/>
  <rect id="svg_10" fill="#e6e6e6" height="73.34799" width="129.9838" y="280.09161" x="256.7496"/>
  <rect id="svg_11" fill="#e6e6e6" height="116.12476" width="155.98056" y="86.97284" x="414.58707"/>
  <rect id="svg_12" fill="#e6e6e6" height="116.12476" width="155.98056" y="237.31485" x="414.58707"/>
  <path id="svg_13" fill="#3a2f2b" d="m510.47857,211.44001l0,-25a33.5,33.5 0 1 1 67,0l0,25a4.50508,4.50508 0 0 1 -4.5,4.5l-58,0a4.50508,4.50508 0 0 1 -4.5,-4.5z"/>
  <polygon id="svg_14" fill="#ffb8b8" points="593.514 536.786 581.698 540.056 563.462 496.038 580.901 491.212 593.514 536.786"/>
  <path transform="rotate(-15.4695 417.47 790.67)" id="svg_15" fill="#000000" d="m413.09159,783.22615l23.64387,0a0,0 0 0 1 0,0l0,14.88687a0,0 0 0 1 0,0l-38.53073,0a0,0 0 0 1 0,0l0,0a14.88686,14.88686 0 0 1 14.88686,-14.88687z"/>
  <polygon id="svg_16" fill="#ffb8b8" points="470.328 545.875 458.068 545.875 452.235 498.587 470.33 498.587 470.328 545.875"/>
  <path id="svg_17" fill="#000000" d="m449.58714,543.45457l23.64387,0a0,0 0 0 1 0,0l0,14.88687a0,0 0 0 1 0,0l-38.53073,0a0,0 0 0 1 0,0l0,0a14.88686,14.88686 0 0 1 14.88686,-14.88687z"/>
  <path id="svg_18" fill="#ffb8b8" d="m455.54459,281.59792a10.0558,10.0558 0 0 0 15.392,0.91737l32.59018,14.65807l-2.96443,-18.33156l-30.4937,-11.10914a10.11028,10.11028 0 0 0 -14.524,13.86524l-0.00005,0.00002z"/>
  <path id="svg_19" fill="#1176ad" d="m523.2588,391.83603c-10.23925,0 -20.83911,-1.52539 -29.74878,-6.06152a38.41551,38.41551 0 0 1 -19.70874,-23.56543c-4.64233,-14.69922 1.21094,-29.14014 6.87134,-43.105c3.50757,-8.65381 6.82056,-16.82715 7.68018,-24.88379l0.30029,-2.86036c1.33887,-12.84765 2.49512,-23.94335 8.897,-28.105c3.31836,-2.15722 7.77979,-2.28027 13.64063,-0.377l55.04492,17.88135l-2.02393,104.49023l-0.33447,0.11182c-0.28811,0.09677 -19.69266,6.4747 -40.61844,6.4747z"/>
  <path opacity="undefined" id="svg_20" fill="#1aaa2c" d="m510.22852,230.34819s27,-8 48,-5c0,0 -12,66 -8,88s-69.5,8.5 -54.5,-12.5l5,-25s-10,-10 -1,-22l10.5,-23.5z"/>
  <path id="svg_21" fill="#1176ad" d="m496.94826,389.85507l-33.27637,-6.23926l11.61768,-89.40673c0.78125,-2.4961 18.77807,-59.14307 26.95166,-62.208a139.51716,139.51716 0 0 1 18.16626,-5.04688l1.18383,-0.23681l-6.67236,10.00879l-26.56445,63.65429l8.59375,89.4746z"/>
  <path id="svg_22" fill="#2f2e41" d="m476.66846,542.69166l-42.99487,-7.16553l24.12817,-98.52392l35.90332,-134.73731l0.35425,2.39258c0.02808,0.17822 3.38208,17.77978 53.15064,9.96973l0.43774,-0.06836l0.12085,0.42627l60.1521,212.53759l-48.99048,8.165l-44.68286,-155.06685l-37.57886,162.0708z"/>
  <path id="svg_23" fill="#1176ad" d="m539.20192,406.58652l0.02685,-0.75635c0.03,-0.83984 2.988,-84.37256 2,-117.96729c-0.99145,-33.709 9.92188,-62.90087 10.03223,-63.19189l0.08887,-0.23438l0.24121,-0.06933c14.11963,-4.03369 26.3689,8.00537 26.491,8.12744l0.17211,0.17188l-4.02124,33.17626l17.21607,120.64161l-52.2471,20.10205z"/>
  <circle id="svg_24" fill="#ffb8b8" r="24.56103" cy="190.79701" cx="537.09466"/>
  <path id="svg_25" fill="#3a2f2b" d="m502.55328,188.44001a26.53,26.53 0 0 1 26.5,-26.5l5.00024,0a26.52977,26.52977 0 0 1 26.49976,26.5l0,0.5l-10.56665,0l-3.604,-10.09179l-0.7207,10.09179l-5.46094,0l-1.81836,-5.09179l-0.36377,5.09179l-35.46558,0l0,-0.5z"/>
  <path id="svg_26" fill="#3a2f2b" d="m534.67752,218.7513a4.43341,4.43341 0 0 1 -0.3523,-4.707c5.29859,-10.07813 12.71729,-28.7002 2.87012,-40.18457l-0.70776,-0.8252l28.5874,0l0,42.91989l-25.96948,4.582a4.59632,4.59632 0 0 1 -0.79639,0.07032a4.48193,4.48193 0 0 1 -3.63159,-1.85544z"/>
  <path id="svg_27" fill="#757575" d="m419.58002,41.54637a135.01972,135.01972 0 1 0 7.65509,199.4028l165.6181,139.74775a12.44209,12.44209 0 0 0 16.06592,-19.00287l-0.01831,-0.01544l-165.61817,-139.74778a135.02729,135.02729 0 0 0 -23.70263,-180.38446zm-10.67676,166.92767a101.15765,101.15765 0 1 1 -12.0766,-142.54788l0.00006,0a101.15764,101.15764 0 0 1 12.07654,142.54788z"/>
  <path id="svg_28" opacity="0.3" d="m266.35534,220.55067a101.16315,101.16315 0 0 1 -17.16559,-135.989q-2.90121,2.92177 -5.60938,6.1199a101.15767,101.15767 0 1 0 154.62446,130.4714q2.702,-3.20224 5.089,-6.559a101.163,101.163 0 0 1 -136.93849,5.9567z"/>
  <path id="svg_29" fill="#ffb8b8" d="m544.98034,324.53592a10.05578,10.05578 0 0 0 12.42386,-9.13254l34.433,-9.55748l-13.99686,-12.20345l-30.55233,10.94686a10.11027,10.11027 0 0 0 -2.30767,19.94661z"/>
  <path id="svg_30" fill="#1176ad" d="m559.29201,319.47714l-2.09546,-19.90622l28.76245,-15.86914l-18.75244,-22.70019l3.05978,-25.49955l7.61987,-3.26562l0.23707,0.30469c3.593,4.62011 35.10522,45.28076 35.10522,50.30713c0,5.16259 -6.02856,20.32324 -14.27637,24.44726c-7.95581,3.978 -37.83081,11.70947 -39.09863,12.03711l-0.56149,0.14453z"/>
  <path id="svg_31" fill="#ccc" d="m708.53268,558.59384l-381,0a1,1 0 1 1 0,-2l381,0a1,1 0 0 1 0,2z"/>
  <path transform="rotate(-13.586 581.063 545.737)" id="svg_32" fill="#000000" d="m576.68425,538.29327l23.64387,0a0,0 0 0 1 0,0l0,14.88687a0,0 0 0 1 0,0l-38.53073,0a0,0 0 0 1 0,0l0,0a14.88686,14.88686 0 0 1 14.88686,-14.88687z"/>
 </g>
</svg>