<svg width="926.63239" height="785.99373" xmlns="http://www.w3.org/2000/svg" data-name="Layer 1">

 <g>
  <title>Layer 1</title>
  <path id="svg_1" fill="#3f3d56" d="m894.20273,329.05626c-46.33985,59.26 -133.78028,72.83 -206.12989,52.19a335.51025,335.51025 0 0 1 -68.1001,-28.35c-12.54,-6.81 -24.77978,-14.28 -36.77,-22.24c-2.9502,-1.95 -5.89991,-3.93 -8.81983,-5.95q-2.98534,-2.04 -5.95019,-4.12994c-24.76026,-17.42 -48.54981,-36.53 -71.94,-55.53c-58.39013,-47.43 -118.37988,-96.32 -190.12011,-118.95c-14.77979,-4.66 -33.89991,-6.84 -43.04,5.68c-7.92969,10.87 -3.08985,26.26 3.62012,37.92005c24.89013,43.19 70.06982,70.46 115.29,91.43c45.21973,20.97 93.12012,37.96 132.42969,68.62c39.31006,30.66 69.32031,79.39 61.28028,128.58c-6.93018,42.39 -41.54,76.83 -81.78028,91.84c-40.23974,15 -85.11963,12.91 -126.94971,3.17c-41.83007,-9.75 -81.54,-26.76 -121.91015,-41.42c-24.33985,-8.85 -56.15967,-14.97 -72.31006,5.28c-13.63965,17.11 -5.7998,44.1 10.81006,58.34s39.09033,19.01 60.54,23.29q99.90015,19.95 199.80029,39.89c20.42969,4.07 41.33984,8.33 59.13965,19.17c17.80029,10.83 32.16016,29.75 31.65039,50.58c-0.51025,20.53 -15.54,38.67 -33.96045,47.76c-18.40967,9.08 -39.66992,10.48 -60.17969,9.5c-76.85986,-3.68 -297.21,-125.79 -350.06006,-141.4c-33.96,-10.02 -71.08984,-24.74 -85.41015,-57.12006c-17.83008,-40.31 11.51025,-89.07995 51.56006,-107.49c40.04,-18.42 86.46,-14.34 130.10009,-8.13995c43.64014,6.19995 88.71973,14.09 131.2002,2.31c42.47949,-11.78 81.3999,-50.18006 77.21,-94.06c-3.65039,-38.18005 -38.04,-66.95 -74.23047,-79.63c-28.32959,-9.93 -58.46972,-12.63 -88.22949,-17.1c-8.26025,-1.23 -16.49023,-2.61 -24.64014,-4.31a307.086,307.086 0 0 1 -60.75,-19.5a312.92391,312.92391 0 0 1 -58.04,-33.31a305.265,305.265 0 0 1 -40.31982,-35.01q-2.83521,-2.93994 -5.61035,-6.01c-1.75977,-1.96 -3.5,-3.96 -5.19971,-6c-22.12012,-26.43 -38.46045,-58.98 -33.56006,-92.51995c4.88965,-33.45 30.96,-61.3 62,-74.68c17.93994,-7.73 37.29,-11.19 56.87989,-11.69a233.79559,233.79559 0 0 1 42.77978,3.08c65.41016,10.46 125.3501,42.24005 181.96045,76.65c56.59961,34.41 111.75977,72.18 173.28955,96.71c61.53027,24.54 131.57031,34.93 193.99023,12.74c62.41993,-22.18 113.69971,-82.7 110.64991,-148.87c41.3999,35.65 76.58008,80.46 92.16015,132.82c15.58007,52.35985 9.31982,112.81987 -24.33008,155.85985z"/>
  <circle id="svg_2" fill="#1176ad" r="7.27771" cy="253.39374" cx="595.91072"/>
  <circle id="svg_3" fill="#1aaa2c" r="11.25197" cy="157.39374" cx="852.91072"/>
  <circle id="svg_4" fill="#1aaa2c" r="4.15748" cy="511.39374" cx="114.91072"/>
  <path id="svg_5" fill="#1aaa2c" d="m234.24276,272.39623a44.42971,44.42971 0 0 1 -1.2998,10.7c-8.26025,-1.23 -16.49023,-2.61 -24.64014,-4.31a307.086,307.086 0 0 1 -60.75,-19.5a44.3374,44.3374 0 0 1 86.68994,13.11z"/>
  <circle id="svg_6" fill="#f0f0f0" r="4.25197" cy="230.39374" cx="780.91072"/>
  <circle id="svg_7" fill="#f0f0f0" r="4.25197" cy="698.39374" cx="391.91072"/>
  <circle id="svg_8" fill="#f0f0f0" r="4.25197" cy="757.39374" cx="452.91072"/>
  <circle id="svg_9" fill="#f0f0f0" r="4.25197" cy="589.39374" cx="75.91072"/>
  <circle id="svg_10" fill="#f0f0f0" r="4.25197" cy="510.39374" cx="284.91072"/>
  <circle id="svg_11" fill="#f0f0f0" r="4.25197" cy="88.39374" cx="263.91072"/>
  <circle id="svg_12" fill="#f0f0f0" r="4.25197" cy="421.39374" cx="520.91072"/>
  <circle id="svg_13" fill="#f0f0f0" r="4.25197" cy="495.39374" cx="552.91072"/>
  <path id="svg_14" fill="none" d="m154.84335,163.72447q9.0747,-2.73879 17.36182,-5.93548c33.96045,-13.11719 53.438,-30.91113 53.438,-48.82031s-19.47753,-35.70313 -53.438,-48.82032q-5.0376,-1.94568 -10.38575,-3.72345a136.34021,136.34021 0 0 1 -6.97607,107.29956z"/>
  <path id="svg_15" fill="#1176ad" d="m169.64267,101.96623a135.44,135.44 0 0 1 -14.79981,61.76q-1.93506,3.78 -4.1001,7.43a136.43138,136.43138 0 0 1 -61.23,54.82a305.26946,305.26946 0 0 1 -40.31982,-35.01q-2.83521,-2.94 -5.61035,-6.01c-1.75977,-1.96 -3.5,-3.96 -5.19971,-6c-22.12012,-26.43 -38.46045,-58.98 -33.56006,-92.51995c4.88965,-33.45 30.96,-61.30005 62,-74.68006c17.93994,-7.73 37.29,-11.18994 56.87989,-11.68994a136.1263,136.1263 0 0 1 35.33007,49.16c1,2.37 1.91993,4.77 2.79,7.2a135.75647,135.75647 0 0 1 7.81989,45.53995z"/>
  <path id="svg_16" fill="#e4e4e4" d="m231.64267,108.96623c0,20.83 -20.33985,40.15 -57.27979,54.42c-7.39014,2.86 -15.30029,5.45 -23.62012,7.77c-31.14013,8.68 -68.20019,13.49 -107.16015,13.8c-1.75977,-1.96 -3.5,-3.96 -5.19971,-6c0.41992,0.01 0.83984,0.01 1.25977,0.01c42.31006,0 82.45019,-5.36 115.20019,-15.24c6.04981,-1.83 11.8501,-3.81 17.35987,-5.94c33.96,-13.11 53.43994,-30.91 53.43994,-48.82c0,-17.91 -19.48,-35.7 -53.43994,-48.82q-5.03981,-1.95 -10.37989,-3.72c-0.87011,-2.43 -1.79,-4.83 -2.79,-7.2q7.97975,2.49 15.33008,5.32c36.9399,14.26998 57.27975,33.6 57.27975,54.42z"/>
  <circle id="svg_17" fill="#f0f0f0" r="4.25197" cy="30.39374" cx="45.91072"/>
  <circle id="svg_18" fill="#f0f0f0" r="4.25197" cy="57.39374" cx="134.91072"/>
  <circle id="svg_19" fill="#f0f0f0" r="41.34843" cy="100.39374" cx="88.91072"/>
  <path id="svg_20" opacity="0.3" fill="#f0f0f0" d="m852.51278,319.23625c-9.28027,2.74 -29.74023,4.76 -52.24023,6c-22.48975,1.23 -47.15967,1.77 -71.52,2.29q-63.95947,1.38008 -127.90967,2.77q-8.79052,0.195 -17.64013,0.36c-2.9502,-1.95 -5.89991,-3.93 -8.81983,-5.95c5.23,0.03 10.46,0 15.6499,-0.1c22.16993,-0.44 40.93994,-2.17 62.31983,-2.99c32.8999,-1.27 68.41992,-0.27 102.71,0.24c34.28998,0.52002 73.3598,0.33002 97.45013,-2.62z"/>
  <path id="svg_21" opacity="0.3" fill="#f0f0f0" d="m198.08358,634.46697l-135.92089,-113.23072l132.04492,117.76612a3.15089,3.15089 0 1 0 3.876,-4.5354l-0.00003,0z"/>
  <circle id="svg_22" fill="#f0f0f0" r="4.25197" cy="201.39374" cx="94.91072"/>
  <polygon id="svg_23" fill="#ffb6b6" points="452.017 694.074 469.604 694.073 477.971 626.236 452.014 626.237 452.017 694.074"/>
  <path id="svg_24" fill="#2f2e41" d="m447.5308,688.33156l4.95031,-0.0002l19.32677,-7.85976l10.35857,7.85856l0.0014,0a22.07371,22.07371 0 0 1 22.07254,22.07219l0,0.71727l-56.70854,0.0021l-0.00105,-22.79016z"/>
  <polygon id="svg_25" fill="#ffb6b6" points="320.308 694.074 302.721 694.073 294.354 626.236 320.311 626.237 320.308 694.074"/>
  <path id="svg_26" fill="#2f2e41" d="m324.79352,711.12172l-56.70854,-0.0021l0,-0.71727a22.07373,22.07373 0 0 1 22.07255,-22.07219l0.0014,0l10.35856,-7.85856l19.32678,7.85976l4.9503,0.0002l-0.00105,22.79016z"/>
  <path id="svg_27" fill="#898989" d="m383.32533,174.18799l-17.80787,13.56007l-47.30511,12.5278s16.95034,118.9604 8.95034,126.9604s-0.785,8.215 -2.3925,18.60751s-8.0134,37.83062 -8.0134,37.83062l141.18774,0s1.13768,-17.05233 -5.82208,-20.74524s6.41582,-20.92914 0.728,-23.811s2.31221,-27.88189 2.31221,-27.88189l17.33726,-81.84953l-46.11409,-36.07971l-7.01323,-16.89753l-36.04727,-2.2215z"/>
  <circle id="svg_28" fill="#f2f2f2" r="6.16142" cy="274.32837" cx="405.54518"/>
  <path id="svg_29" fill="#2f2e41" d="m316.75679,383.67438l-5.82221,149.921s-25.13853,110.72974 -20.77189,113.64087s6.21647,20.26918 6.21647,20.26918l24.74427,2.91107s0,-11.64434 5.8222,-16.011s59.67731,-209.59827 59.67731,-209.59827l52.53975,198.429s1.31535,11.16933 5.682,11.16933s5.8222,16.011 5.8222,16.011l24.7442,0l0,-16.011s11.11824,-3.525 6.75161,-15.16933s-24.21816,-255.56184 -24.21816,-255.56184l-141.18775,-0.00001z"/>
  <circle id="svg_30" fill="#ffb6b6" r="29.83864" cy="135.41526" cx="401.81722"/>
  <polygon id="svg_31" opacity="0.1" points="452.85 269.414 458.672 273.781 461.583 253.403 452.85 269.414"/>
  <path id="svg_32" fill="#898989" d="m321.00275,200.16011s-7.27771,-1.45554 -11.64435,11.64435s-20.37763,62.58838 -20.37763,71.32162s99.71021,47.26678 99.71021,47.26678l-10.37479,-36.396l-45.66916,-23.97063l-11.64428,-69.86612z"/>
  <circle id="svg_33" fill="#ffb6b6" r="17" cy="307.99686" cx="393.3162"/>
  <polygon id="svg_34" opacity="0.1" points="331.316 251.997 332.647 270.026 374.878 292.192 337.316 266.997 331.316 251.997"/>
  <path id="svg_35" fill="#f0f0f0" d="m432.83919,254.56723l-0.54786,0l0,-15.00827a8.68635,8.68635 0 0 0 -8.68634,-8.6864l-31.79705,0a8.68638,8.68638 0 0 0 -8.68641,8.68637l0,82.33658a8.68636,8.68636 0 0 0 8.68634,8.6864l31.79706,0a8.68638,8.68638 0 0 0 8.6864,-8.68637l0,-56.64514l0.54786,0l0,-10.68317z"/>
  <path id="svg_36" fill="#898989" d="m472.49995,229.38672s4.36664,2.9111 7.27771,16.011s21.83313,62.58838 14.55542,74.23273s-9.42613,24.07235 -34.17039,6.60582l-34.24019,-31.35005l24.74426,-23.2887l10.18878,7.27771l11.64441,-49.48851z"/>
  <circle id="svg_37" fill="#1176ad" r="7.27771" cy="260.29233" cx="408.09493"/>
  <circle id="svg_38" fill="#ffb6b6" r="17" cy="276.23626" cx="429.16269"/>
  <polygon id="svg_39" opacity="0.1" points="330.514 306.41 379.316 327.997 329.158 318.194 330.514 306.41"/>
  <path id="svg_40" fill="#2f2e41" d="m371.71343,141.36172l-4.09688,-15.59186c-1.069,-4.06825 -2.1468,-8.2188 -1.90666,-12.41829s2.02153,-8.53306 5.55953,-10.80812s8.93887,-1.73765 11.21552,1.79934c0.43269,-5.6477 5.57051,-9.99191 11.02167,-11.5309s11.23883,-0.93036 16.89712,-0.67071s11.63086,0.07839 16.51434,-2.79133a5.11236,5.11236 0 0 1 -2.289,6.0413a4.96273,4.96273 0 0 0 5.99526,-3.162a12.87951,12.87951 0 0 1 -3.38121,8.84533a9.47453,9.47453 0 0 1 12.24607,3.46758c2.49223,4.32072 1.09576,9.747 -0.36235,14.5171l-7.48376,24.48244c-1.13493,-3.72175 -1.349,-7.651 -1.95614,-11.49426s-1.68723,-7.76808 -4.22427,-10.71815s-6.84639,-4.65853 -10.45111,-3.19377c-2.02248,0.82183 -3.56457,2.4891 -5.39049,3.68569c-3.74646,2.45519 -8.512,2.80734 -12.96327,2.30773s-8.789,-1.76713 -13.2396,-2.27343c-2.78658,-0.317 -5.89639,-0.23309 -7.9989,1.623a10.28106,10.28106 0 0 0 -2.73826,5.46723a43.4859,43.4859 0 0 0 -1.158,12.5407"/>
 </g>
</svg>